<?xml version="1.0" encoding="utf-8"?>
<!-- Generator: Adobe Illustrator 22.0.1, SVG Export Plug-In . SVG Version: 6.00 Build 0)  -->
<svg version="1.1" id="Layer_1" xmlns="http://www.w3.org/2000/svg" xmlns:xlink="http://www.w3.org/1999/xlink" x="0px" y="0px"
	 viewBox="0 0 500 165.5" style="enable-background:new 0 0 500 165.5;" xml:space="preserve">
<style type="text/css">
	.st0{fill:#00639C;}
	.st1{fill:#78BE43;}
</style>
<g>
	<path class="st0" d="M184.3,94.2V47.3h24.7c8.9,0,13.5,5.7,13.5,12c0,5.9-3.7,9.8-8.1,10.8c5,0.8,9,5.6,9,11.5
		c0,7-4.7,12.7-13.6,12.7H184.3z M212.3,61c0-3-2.1-5.1-5.5-5.1h-12.5v10.2h12.5C210.1,66.1,212.3,64,212.3,61z M213.2,80.2
		c0-3-2.1-5.5-6.1-5.5h-12.9v10.9h12.9C210.9,85.6,213.2,83.5,213.2,80.2z"/>
	<path class="st0" d="M257.4,94.2l-9.2-16.7h-7.3v16.7h-10V47.3h21.9c9.8,0,15.8,6.4,15.8,15.1c0,8.3-5.2,12.7-10.3,13.9l10.6,17.9
		H257.4z M258.4,62.4c0-3.9-3-6.3-7-6.3h-10.5v12.7h10.5C255.4,68.8,258.4,66.4,258.4,62.4z"/>
	<path class="st0" d="M288,94.2V75l-18.1-27.7h11.4l11.7,18.9l11.5-18.9h11.4L297.9,75v19.2H288z"/>
	<path class="st0" d="M347.9,94.2l-2.9-7.9h-20.1l-3,7.9h-11.4l18.2-46.9h12.5l18.1,46.9H347.9z M334.9,57.3l-7.3,20.2h14.6
		L334.9,57.3z"/>
	<path class="st0" d="M396,94.2l-22.4-30.6v30.6h-10V47.3h10.3l21.7,29.5V47.3h10v46.9H396z"/>
	<path class="st0" d="M411.8,87.6l5.4-7.6c3.3,3.4,8.4,6.3,14.9,6.3c5.5,0,8.2-2.5,8.2-5.2c0-8.3-27-2.6-27-20.3
		c0-7.8,6.8-14.3,17.8-14.3c7.5,0,13.6,2.3,18.3,6.5l-5.6,7.3c-3.8-3.5-8.9-5.1-13.6-5.1c-4.3,0-6.7,1.9-6.7,4.7
		c0,7.5,26.9,2.5,26.9,20c0,8.6-6.1,15.1-18.8,15.1C422.6,95.1,416.1,92.1,411.8,87.6z"/>
</g>
<g>
	<path class="st1" d="M184.3,117.7V98.7h12.4v2.1h-10.1v6.1h9.9v2.1h-9.9v8.6H184.3z"/>
	<path class="st1" d="M213.8,117.7l-1.7-4.2h-9.4l-1.7,4.2h-2.7l7.6-18.9h2.9l7.6,18.9H213.8z M207.4,101.2l-4,10.2h8L207.4,101.2z"
		/>
	<path class="st1" d="M236.5,117.7v-15.6l-6.4,15.6h-1l-6.4-15.6v15.6h-2.4V98.7h3.4l5.9,14.3l5.9-14.3h3.4v18.9H236.5z"/>
	<path class="st1" d="M244.7,117.7V98.7h2.4v18.9H244.7z"/>
	<path class="st1" d="M252.9,117.7V98.7h2.4v16.8h8.8v2.1H252.9z"/>
	<path class="st1" d="M270.9,117.7v-8l-7.5-10.9h2.8l5.9,8.8l5.9-8.8h2.8l-7.4,10.9v8H270.9z"/>
	<path class="st1" d="M293.3,117.7V98.7h7.6c3.8,0,5.9,2.6,5.9,5.7c0,3.1-2.2,5.7-5.9,5.7h-5.3v7.5H293.3z M304.4,104.5
		c0-2.1-1.5-3.6-3.8-3.6h-5v7.2h5C302.9,108.1,304.4,106.6,304.4,104.5z"/>
	<path class="st1" d="M324.8,117.7V109h-11.1v8.7h-2.4V98.7h2.4v8.1h11.1v-8.1h2.4v18.9H324.8z"/>
	<path class="st1" d="M346.5,117.7l-1.7-4.2h-9.4l-1.7,4.2H331l7.6-18.9h2.9l7.6,18.9H346.5z M340.1,101.2l-4,10.2h8L340.1,101.2z"
		/>
	<path class="st1" d="M364.1,117.7l-4.8-7.5h-3.8v7.5h-2.4V98.7h7.6c3.5,0,5.9,2.2,5.9,5.7c0,3.4-2.3,5.3-4.9,5.5l5.1,7.7H364.1z
		 M364.2,104.5c0-2.1-1.5-3.6-3.8-3.6h-5v7.2h5C362.7,108.1,364.2,106.6,364.2,104.5z"/>
	<path class="st1" d="M388,117.7v-15.6l-6.4,15.6h-1l-6.4-15.6v15.6h-2.4V98.7h3.4L381,113l5.9-14.3h3.4v18.9H388z"/>
	<path class="st1" d="M409.7,117.7l-1.7-4.2h-9.4l-1.7,4.2h-2.7l7.6-18.9h2.9l7.6,18.9H409.7z M403.3,101.2l-4,10.2h8L403.3,101.2z"
		/>
	<path class="st1" d="M414.4,108.2c0-5.8,4.3-9.8,9.7-9.8c3.4,0,5.7,1.6,7.2,3.7l-2,1.1c-1.1-1.6-3-2.8-5.2-2.8
		c-4.1,0-7.3,3.2-7.3,7.7c0,4.5,3.2,7.7,7.3,7.7c2.2,0,4.1-1.1,5.2-2.8l2,1.1c-1.6,2.2-3.9,3.7-7.2,3.7
		C418.7,118,414.4,114.1,414.4,108.2z"/>
	<path class="st1" d="M440.9,117.7v-8l-7.5-10.9h2.8l5.9,8.8l5.9-8.8h2.8l-7.4,10.9v8H440.9z"/>
</g>
<path class="st1" d="M163.6,74.1c-2.8,1.8-5.8,3.3-8.9,4.3c-3.4,1.2-7,1.9-10.6,2.1c-0.1,0-1.2,0.1-1.2,0.1c-0.5,0-1,0-1.5,0
	c-0.4,0-0.8,0-1.1,0c-0.1,0-0.2,0-0.2,0c-0.5,0-1,0-1.5-0.1c-6.2-0.4-11.8-2.2-17-4.7c-0.7-0.4-1.5-0.8-2.2-1.2
	c-6.6-3.6-12.4-8.3-17.8-12.6c-1-0.8-1.9-1.5-2.8-2.3c-3.1-2.4-6.1-4.8-9.2-6.7c-2-1.3-4-2.4-6.1-3.2c-5.1-2.1-10.4-2.8-15.5-2.2
	c0,0-0.1,0-0.1,0c-4.1,0.5-7.7,2.7-10.1,5.9c-1.1,1.5-2,3.2-2.7,4.9c-1.1,2.8-1.3,5.8-0.8,8.6c0.2,1.4,0.7,2.8,1.2,4.1c0,0,0,0,0,0
	c0,0,0,0.1,0,0.1c0,0,0,0,0,0.1c0,0,0,0,0,0.1c0,0.2-0.1,0.4-0.3,0.5c-0.2,0-0.3,0-0.4-0.2c-2.8-3.9-4.9-8-5.9-12.3
	c-0.2-1-1.2-1.7-2.2-1.5c-1,0.2-1.6,1.2-1.4,2.2c0,0.1,0,0.1,0,0.2c1.8,8.6,7.7,16.9,16,23.6c0.9,0.7,1.7,1.4,2.6,2.1
	c9.6,7.1,21.8,12.3,34.1,14c0.2,0,0.3,0.1,0.4,0.3c0,0.2-0.1,0.4-0.3,0.5c0,0,0,0-0.1,0s0,0-0.1,0c-8.6-0.6-17.1-2.7-24.8-6.2
	c-3.8-1.8-7.4-3.9-10.7-6.3c0,0,0,0,0,0c-1.8-1.3-3.5-2.7-5.1-4.2c9.3,19.8,29.4,33.5,52.6,33.5c27.8,0,51.1-19.6,56.8-45.7
	C165.7,72.6,164.7,73.4,163.6,74.1z"/>
<path class="st0" d="M152,58.2l0.2-0.1v0l2.8-1.8l5-3.2c2.5-1.6,4.3-4.2,4.9-7.1c1.2-6-2.6-11.8-8.6-13.1c-5.1-1-10.1,1.5-12.3,6.2
	l-4.5,9.1c-0.5,0.8-1,1.5-1.7,2.1l-1.9,1.6l-2.7,2.4c-8.1-1.1-17-1.7-26.2-1.7c-4.2,0-8.4,0.1-12.5,0.4c1.2,0.9,2.3,1.7,3.5,2.6
	c1.8,0,3.7-0.1,5.7-0.1c10.3,0,19,0.7,26.2,1.7l-2.5,2.1c-5.9-0.6-12.7-1-20.4-1c-1.9,0-3.7,0-5.4,0.1c1.7,1.3,3.4,2.7,5.1,4
	c0.8,0.6,1.5,1.2,2.3,1.8c0.5,0.4,0.9,0.7,1.4,1.1c1.8,1.3,3.7,2.6,5.6,3.9c0.8,0.5,1.6,1,2.4,1.5l5-4.4l5.7-4.9l1.8-1.6l0.2-0.2
	l2.1-1.8l3.4-3l2.7-2.3l0.2-0.2c0.9-0.8,1.7-1.8,2.3-2.9l0-0.1l0.5-1l4-8.2c1.6-3.5,5.4-5.5,9.3-4.7c4.5,0.9,7.4,5.4,6.5,9.9
	c-0.5,2.3-1.9,4.2-3.7,5.4l-0.1,0l-6.8,4.4l-1.2,0.8c0.1-0.1,0.3-0.2,0.4-0.2l-0.8,0.5c-0.4,0.3-0.8,0.6-1.2,1
	c-0.8,0.7-1.4,1.5-2,2.4l-0.6,1l-1,1.7l-1.5,2.5l-1.2,2l-1.4,2.5l-4.6,7.8c1,0.1,1.9,0.2,2.9,0.3c0,0,0.1,0,0.1,0c0.2,0,0.4,0,0.6,0
	c5.3,0.2,10.5-0.6,15.2-2.2c0.6-0.2,1.2-0.4,1.8-0.7c2.6-1.2,4.5-2.3,5.8-3.5c1.9-1.6,2.7-3,2.7-4.1C165.8,64.9,162.1,61.3,152,58.2
	z M158.4,67.1c-2-1.2-5.5-2.7-10.5-4l0.9-1.5c2.8,1,4.8,1.9,6.2,2.7c1.5,0.9,2.8,2,4,3.2C158.8,67.3,158.6,67.2,158.4,67.1z"/>
</svg>
