<?xml version="1.0" encoding="utf-8"?>
<!-- Generator: Adobe Illustrator 22.0.1, SVG Export Plug-In . SVG Version: 6.00 Build 0)  -->
<svg version="1.1" id="Layer_1" xmlns="http://www.w3.org/2000/svg" xmlns:xlink="http://www.w3.org/1999/xlink" x="0px" y="0px"
	 viewBox="0 0 755 258" style="enable-background:new 0 0 755 258;" xml:space="preserve">
<style type="text/css">
	.st0{display:none;}
	.st1{display:inline;fill:#898A8D;}
	.st2{fill:#373A36;}
	.st3{fill:#B3282D;}
</style>
<g class="st0">
	<path class="st1" d="M391.6,339.9c-0.9,0-1.9-0.1-3-0.5c-0.3,0-0.6-0.1-0.8-0.3c0,0-0.1-0.1-0.1-0.1c-0.3-0.1-0.6-0.3-0.8-0.6
		c-0.1-0.2-0.2-0.4-0.3-0.5c-0.1-0.1-0.2-0.2-0.3-0.3c-0.1-0.2-0.2-0.4-0.3-0.6c-0.1-0.4-0.2-0.9-0.2-1.3c-0.3-1.7-0.6-3.2-1.8-4.2
		c-0.1-0.1-0.2-0.1-0.2-0.2c-0.2,0-0.4-0.1-0.6-0.3c-0.1-0.1-0.2-0.2-0.3-0.3c-0.2-0.1-0.5-0.2-0.7-0.5c0,0-0.1-0.1-0.1-0.1
		c-0.5-0.7-1.1-1.3-2-2c0,0-0.1,0-0.1-0.1c-0.1,0-0.1-0.1-0.2-0.1c-0.2-0.1-0.4-0.2-0.5-0.3c-0.3-0.3-0.5-0.7-0.4-1.1
		c-0.1-0.7-0.3-1.2-0.8-1.6c0,0-0.1-0.1-0.1-0.1l-0.5-0.4c0,0-0.1,0-0.1-0.1c-0.1-0.1-0.2-0.2-0.3-0.3c-0.1-0.1-0.2-0.1-0.3-0.2
		c0,0,0,0,0,0c-0.1-0.1-0.1-0.2-0.2-0.3c0,0-0.1-0.1-0.1-0.1c-0.2,0-0.5-0.1-0.7-0.2c-0.1-0.1-0.2-0.1-0.2-0.2
		c-0.2,0-0.4-0.1-0.5-0.2c-0.1-0.1-0.3-0.2-0.4-0.3c-0.2-0.2-0.5-0.4-1.3-0.3c-2,0.1-4.1-0.3-6.5-1.3c-0.2,0-0.5-0.2-0.6-0.3
		c-0.1-0.1-0.2-0.2-0.2-0.3c-0.1-0.1-0.2-0.1-0.3-0.2c-0.1-0.1-0.1-0.1-0.1-0.2c-0.1-0.1-0.2-0.2-0.3-0.3c-0.2-0.2-0.3-0.5-0.3-0.7
		c0,0,0,0-0.1-0.1l-0.5-0.5c-0.1-0.2-0.3-0.3-0.3-0.5c-0.8-1.6-1.1-3.3-0.9-5.3c0.1-1-0.2-1.9-0.8-2.5c-0.1-0.1-0.1-0.1-0.2-0.2
		c-0.1-0.2-0.2-0.4-0.3-0.6c-0.4-1.5-0.5-3.1-0.5-4.7c0-0.9,0.1-1.8,0.1-2.6c0-0.7-0.2-0.9-0.2-0.9c-0.1,0-0.3-0.1-1,0.1
		c-0.2,0.1-0.4,0.1-0.6,0.1c0,0-0.1,0-0.1,0c-0.1,0.1-0.2,0.2-0.3,0.3c-0.2,0.2-0.4,0.2-0.7,0.3c-0.1,0.1-0.1,0.1-0.2,0.1
		c-0.2,0.1-0.4,0.2-0.7,0.3c-0.1,0.1-0.2,0.2-0.3,0.3c-0.2,0.1-0.5,0.2-0.8,0.2c-0.3,0.3-0.8,0.5-1.2,0.5c-0.1,0-0.1,0.1-0.2,0.2
		c-0.1,0.1-0.2,0.1-0.2,0.2c-0.1,0-0.1,0.1-0.2,0.1c-0.9,0.5-1.8,0.4-2.5,0.3c-0.2,0-0.4,0-0.6,0c-0.3,0.1-0.7,0.1-1,0
		c-0.6-0.3-0.8-0.2-0.8-0.2c0,0-0.1,0.1-0.5,0.6c-0.7,0.9-1.1,2-1.6,3.3c0,0.2-0.1,0.5-0.3,0.6c-0.3,0.4-0.8,0.6-1.2,0.5
		c-1.4,0.1-2.5,0.5-3.4,1.1c0,0,0,0,0,0c0,0-0.1,0.1-0.1,0.1c0,0-0.1,0.1-0.1,0.1c-0.6,0.5-0.9,1.2-0.9,2c0.1,0.3,0.1,0.7-0.1,1
		c-0.1,0.2-0.3,0.4-0.4,0.5c-0.1,0.3-0.3,0.6-0.7,0.9c-0.1,0-0.1,0.1-0.2,0.1c0,0.1-0.1,0.2-0.2,0.2c-0.1,0.1-0.1,0.1-0.2,0.2
		c-0.1,0.2-0.2,0.4-0.4,0.6c-0.2,0.2-0.5,0.3-0.8,0.4c-2.3,0.6-4.6,0.4-7.1-0.4c-0.1,0-0.3-0.1-0.4-0.1c-0.4-0.2-0.9-0.5-1.1-0.6
		c-0.2,0.1-0.4,0.4-0.6,0.6c0,0-0.1,0.1-0.1,0.1l-0.4,0.4c0,0,0,0,0,0l-0.5,0.5c0,0,0,0,0,0c0,0.3-0.1,0.5-0.3,0.7
		c-0.1,0.1-0.2,0.2-0.3,0.2c0,0.1-0.1,0.2-0.2,0.2c-0.1,0.1-0.2,0.2-0.3,0.2c-0.1,0.1-0.2,0.2-0.3,0.3c-0.3,0.2-0.7,0.3-1.1,0.3
		c-0.7,0-1.6,0-2.4-0.8c-0.2-0.2-0.3-0.4-0.4-0.6c-0.1-0.2-0.2-0.4-0.3-0.5c-0.1-0.1-0.2-0.1-0.2-0.2c-0.1-0.2-0.2-0.3-0.3-0.5
		l-0.1-0.3c-0.2-0.6-0.4-1.1-0.7-1.5c-0.2-0.1-0.3-0.3-0.4-0.4c-0.1-0.2-0.1-0.3-0.2-0.5c0,0,0,0,0,0c-0.1-0.1-0.2-0.2-0.2-0.3
		c0,0-0.1-0.1-0.1-0.1c-0.7-0.6-1.3-0.9-1.9-1c-0.3,0-0.5,0-0.8-0.1c-0.1,0-0.2-0.1-0.3-0.2c-1.5-1.1-2.4-1.2-3.3-0.7
		c-0.3,0.2-0.7,0.2-1,0.1c-0.1,0-0.2,0-0.3,0c-0.7,0-1.8,0.1-2.8-0.8c-0.4-0.3-0.8-0.8-1.2-1.2c-0.4-0.5-0.9-0.9-1.3-1.2
		c0,0-0.1-0.1-0.1-0.1c-1.7-1.3-2-1.3-3.5-0.4c-0.2,0.1-0.3,0.2-0.5,0.2c-0.1,0.1-0.1,0.1-0.2,0.1c-0.2,0.1-0.4,0.2-0.6,0.2
		c-0.1,0.2-0.3,0.3-0.6,0.4c0,0-0.1,0-0.2,0c-0.6,0.1-1.2,0.2-1.8,0.2c-0.9,0.1-1.7,0.1-2.3,0.5c-0.1,0.1-0.2,0.1-0.4,0.1
		c0,0.2-0.1,0.3-0.1,0.5c-0.1,0.3-0.3,0.5-0.6,0.6c-0.1,0.1-0.2,0.3-0.1,1c0,0,0,0,0,0.1c0.1,0.3,0,0.7-0.2,1
		c-0.1,0.1-0.2,0.2-0.3,0.3c0.1,0.4,0,0.8-0.3,1.1c-0.1,0.1-0.2,0.2-0.3,0.3c-0.1,0.1-0.1,0.2-0.2,0.2c-0.1,0.1-0.1,0.1-0.2,0.2
		c-0.1,0.1-0.1,0.2-0.2,0.3c-0.2,0.2-0.5,0.3-0.8,0.4c-1.1,0.2-2,0-2.8-0.2c-0.2-0.1-0.4-0.1-0.6-0.2c-0.3,0-0.6-0.1-0.9-0.3
		c-0.1-0.1-0.2-0.2-0.3-0.3c-0.1,0-0.1-0.1-0.2-0.2c0,0-0.1-0.1-0.1-0.1c-0.2,0-0.5-0.1-0.7-0.3c-0.1-0.1-0.1-0.1-0.2-0.2
		c-0.1,0-0.2-0.1-0.3-0.2c0,0-0.1,0-0.1-0.1c-0.7-0.5-1.5-0.6-2.8-0.6c-0.2,0-0.4,0-0.5,0c-0.4,0.1-0.8,0-1.1-0.2
		c-0.1-0.1-0.2-0.2-0.3-0.3c-0.1-0.1-0.2-0.1-0.3-0.2c-0.3-0.3-0.4-0.7-0.4-1.1c0-0.3-0.1-0.7-0.2-1c-0.1-0.5-0.3-1.1-0.3-1.8l0-0.2
		c0-0.1,0-0.3,0-0.4c-0.1-0.1-0.2-0.2-0.3-0.3c-0.1-0.1-0.1-0.2-0.2-0.3c0,0,0,0,0,0c-0.6-0.4-1.3-0.5-2.2-0.6
		c-0.6-0.1-1.2-0.2-1.8-0.3c-0.3,0-0.5-0.1-0.8-0.3c-0.1-0.1-0.2-0.2-0.2-0.3c-0.1-0.1-0.2-0.2-0.3-0.2c-0.2-0.3-0.3-0.6-0.3-0.9
		c0-0.4,0-0.8,0-1.2c0-1,0-1.6-0.5-2.1l0,0c-0.1-0.1-0.1-0.2-0.2-0.2c-0.1-0.2-0.4-0.3-1-0.4l-0.3-0.1c-0.8-0.2-1.7-0.3-2.6-0.5
		c-0.3,0-0.5-0.1-0.8-0.1c-0.3,0-0.6-0.1-0.8-0.2c-0.2-0.2-0.4-0.4-0.5-0.6c-0.1-0.1-0.3-0.2-0.5-0.3c-1.4-1-2.8-1-4.9,0.2
		c-0.3,0.1-0.6,0.2-0.9,0.1c-0.1,0-0.2,0-0.3,0c-2.4,0.9-4.9,0.9-7.5-0.2c-0.3-0.1-0.5-0.2-0.6-0.2c-0.4,0.1-0.7,0-1-0.3
		c-0.1,0-0.1-0.1-0.2-0.2c-0.2,0-0.5,0-0.7-0.1c-1.2-0.6-2.6-0.9-4-1.1c-0.8-0.1-1.5-0.3-2.3-0.5c-0.2,0-0.4-0.1-0.6-0.2
		c-0.2-0.1-0.4-0.3-0.5-0.5c-0.1-0.1-0.3-0.1-0.5-0.2c-0.3,0-0.6-0.2-0.9-0.4c-0.2-0.2-0.3-0.5-0.4-0.8c0,0,0,0,0,0
		c-0.1-0.1-0.2-0.2-0.3-0.4l0-0.1c0,0,0-0.1,0-0.1c-0.2-0.1-0.4-0.2-0.6-0.4c-0.2-0.3-0.3-0.6-0.3-0.9c-0.1-1-0.1-2,0-3
		c0-0.6,0-1.3,0-1.9l0-0.4c0-1.3-0.1-2.5-0.8-3.3c-0.1-0.1-0.2-0.2-0.2-0.3c-0.1-0.2-0.2-0.5-0.2-0.8c0,0,0,0,0,0
		c-0.2-0.1-0.4-0.2-0.5-0.4c-0.1-0.1-0.2-0.3-0.3-0.4c-0.1-0.1-0.3-0.2-0.5-0.4c0,0-0.1-0.1-0.1-0.1c-0.3-0.1-0.6-0.3-0.8-0.6
		c-0.8-1.3-1.8-3.3-1.7-5.8c0-0.5-0.1-0.8-0.3-1c-0.1-0.1-0.2-0.2-0.3-0.3c-0.1-0.2-0.2-0.4-0.2-0.6c-0.1-0.1-0.1-0.1-0.2-0.2
		c-0.2-0.3-0.3-0.6-0.3-0.9c0-0.2-0.2-0.4-0.5-0.7c0,0,0,0-0.1-0.1c-0.1-0.1-0.1-0.1-0.1-0.2c-0.1,0-0.1-0.1-0.2-0.2
		c-0.1-0.1-0.1-0.1-0.2-0.2c-0.1-0.1-0.3-0.2-0.6-0.3c-0.2-0.1-0.5-0.2-0.7-0.4c-0.3,0-0.6-0.1-0.9-0.4c-0.2-0.2-0.6-0.4-1.1-0.5
		l-0.3-0.1c-0.9-0.3-2-0.5-3-0.7c-0.7-0.1-1.4-0.2-2.2-0.4c-0.3,0-0.5-0.1-0.8-0.3l-0.1-0.1c-0.4-0.3-0.5-0.7-0.5-1.1
		c-0.2-0.1-0.4-0.3-0.6-0.5c-0.2-0.3-0.2-0.6-0.2-1c0-0.8,0.1-1.5,0.3-2.5c0.2-1,0.2-1.4-0.1-1.7c-0.1-0.1-0.3-0.2-0.4-0.3
		c-0.1-0.1-0.1-0.2-0.2-0.4c0,0-0.1,0-0.1,0c-0.1,0.2-0.2,0.4-0.4,0.6c-0.3,0.2-0.6,0.3-0.9,0.3c-0.1,0.1-0.2,0.1-0.2,0.2
		c-0.1,0.1-0.2,0.2-0.4,0.3c0,0,0,0,0,0c-0.1,0.1-0.1,0.1-0.2,0.2l-0.8,0.6c-1.1,1-2.4,0.6-3,0.4c-0.1,0-0.2-0.1-0.3-0.1
		c-0.2,0-0.5,0-0.7-0.1c-0.3-0.1-0.5-0.2-0.6-0.3c0,0-0.1,0.1-0.2,0.2c-0.1,0.2-0.3,0.4-0.5,0.5l-0.1,0c-0.2,0.1-0.3,0.1-0.5,0.2
		c0,0,0,0,0,0c-0.1,0.1-0.1,0.1-0.2,0.2c-0.1,0.1-0.1,0.2-0.2,0.2c-0.1,0.1-0.1,0.1-0.2,0.2c-0.1,0.1-0.1,0.2-0.2,0.3
		c-0.1,0.1-0.1,0.1-0.2,0.1c-0.1,0.1-0.2,0.3-0.4,0.4c-0.1,0.1-0.3,0.2-0.4,0.2c-2.4,0.8-4.5,0.6-6.3-0.7c-0.2-0.2-0.4-0.4-0.5-0.7
		c-0.1,0-0.1-0.1-0.2-0.2c-0.4-0.4-1.1-0.6-1.8-0.8c-0.6-0.2-1.2-0.3-1.8-0.7c-0.2-0.1-0.3-0.2-0.5-0.3c-0.1-0.1-0.2-0.3-0.3-0.5
		l0-0.1c-0.1-0.3-0.3-0.5-0.4-0.7c-0.1,0-0.1-0.1-0.2-0.2c-0.1-0.1-0.1-0.1-0.1-0.2c-0.1-0.1-0.3-0.2-0.4-0.3
		c-0.1-0.2-0.2-0.4-0.3-0.6c-0.1-0.1-0.2-0.2-0.2-0.3c-0.2-0.2-0.2-0.5-0.2-0.8c-0.1-0.1-0.2-0.3-0.3-0.4c-0.2-0.1-0.3-0.2-0.4-0.3
		c-0.2,0-0.4,0-0.6-0.1c-0.1,0-0.1-0.1-0.2-0.1c-1.2,0.7-1.9,1.9-2.7,3.2c-0.1,0.1-0.2,0.3-0.3,0.4c-0.2,0.2-0.5,0.3-0.6,0.4
		c-0.1,0.1-0.2,0.2-0.3,0.3c-0.3,0.2-0.7,0.3-1.1,0.3l-0.1,0c-0.3,0-0.6,0-0.9-0.2c-0.4-0.3-0.7-0.7-0.7-1.2c-0.2-1.4-0.1-2.7-0.1-4
		c0-0.9,0.1-1.7,0-2.6c0-0.2,0-0.4,0.1-0.6c-0.1-0.2-0.1-0.4-0.1-0.5l0.1-9.6c0-0.1,0-0.1,0-0.2c0-0.2,0-0.3,0.1-0.5
		c0-0.3,0.1-0.6,0.1-0.8c0-4.8,0-9.6,0-14.4c0-0.7,0.6-1.3,1.3-1.3c0,0,0,0,0,0c0.7,0,1.3,0.6,1.3,1.3c0,4.8,0,9.6,0,14.4
		c0,0.4-0.1,0.8-0.1,1.2c0,0.1,0,0.2-0.1,0.4l-0.1,9.3c0.2,0.5,0.2,1.1,0,1.6c0,0.8,0,1.7,0,2.5c0,0.4,0,0.8,0,1.2
		c0.9-1.2,1.9-2.4,3.5-3.1c0.2-0.1,0.3-0.1,0.5-0.1l0.1,0c0.8-0.1,1.3,0.1,1.6,0.4c0.4,0.1,0.8,0.3,1.2,0.7c0.3,0.2,0.6,0.5,0.8,0.8
		c0.3,0.3,0.5,0.6,0.7,1.1c0.2,0.2,0.4,0.5,0.4,0.8c0.2,0.2,0.3,0.4,0.4,0.6c0.3,0.3,0.5,0.6,0.6,0.9c0.3,0.1,0.7,0.3,1.1,0.4
		c0.8,0.2,1.6,0.5,2.4,1c0.6,0,0.9,0.3,1.1,0.5c0.2,0.2,0.3,0.5,0.4,0.8c0.8,0.4,1.6,0.4,2.6,0.2c0.1-0.2,0.3-0.3,0.5-0.4
		c0.1-0.1,0.2-0.3,0.4-0.4c0.1-0.2,0.3-0.4,0.5-0.5c0.3-0.4,0.8-0.7,1.2-0.7c1.1-1,1.9-1.1,3.4-0.4c0.4,0,0.7,0.2,1,0.3
		c0.1,0,0.2,0.1,0.3,0.1c0,0,0.1,0,0.1-0.1l0.5-0.4c0.1-0.3,0.4-0.5,0.7-0.6c0,0,0,0,0,0c0.3-0.3,0.7-0.7,1.4-0.9
		c0.9-1.1,2.3-1,2.9-0.9c0.4,0,1.5,0.2,1.8,1.5c1.2,1.3,0.9,3,0.7,4c-0.1,0.6-0.2,1.1-0.2,1.5c0.2,0.2,0.4,0.5,0.6,0.8
		c0.5,0.1,0.9,0.2,1.4,0.3c1.1,0.2,2.3,0.4,3.5,0.8l0.3,0.1c0.4,0.2,1,0.3,1.4,0.6c0.2,0,0.4,0,0.6,0.1c0.2,0.1,0.5,0.2,0.7,0.5
		c0.1,0,0.1,0,0.2,0.1c0.4,0.2,0.9,0.4,1.4,0.8c0.4,0.2,0.7,0.5,0.9,1c0.3,0.4,0.7,0.8,0.9,1.5c0.3,0.3,0.5,0.6,0.5,1.2
		c0.6,0.7,0.8,1.7,0.8,2.7c0,1.2,0.3,2.5,1.1,3.9c0.1,0.1,0.2,0.2,0.3,0.2c0,0,0.1,0.1,0.1,0.1c0.4,0.3,0.9,0.6,1.2,1.1
		c0.5,0.3,1.1,0.9,1.2,1.8c1.1,1.5,1.2,3.3,1.2,4.8l0,0.4c0,0.7,0,1.4,0,2.1c0,0.7,0,1.5,0,2.1c0.3,0.3,0.5,0.6,0.6,0.8
		c0.2,0.2,0.4,0.4,0.5,0.7c0.4,0.1,0.8,0.3,1.1,0.7c0.6,0.1,1.2,0.3,1.9,0.4c1.5,0.2,3,0.5,4.4,1.2c0.7,0,1.2,0.2,1.6,0.5
		c0.4,0.1,0.8,0.2,1.1,0.4c2,0.8,3.8,0.9,5.6,0.2c0.4-0.2,0.9-0.2,1.2-0.2c0,0,0,0,0,0c1.4-0.7,4.4-2,7.4,0.2c0.1,0,0.1,0.1,0.2,0.1
		c0,0,0,0,0,0c0,0,0.1,0,0.1,0c0.2,0.1,0.5,0.3,0.8,0.6c0.1,0,0.3,0,0.4,0.1c0.9,0.1,1.9,0.3,2.8,0.5l0.2,0.1
		c0.8,0.2,1.9,0.4,2.6,1.5c1.1,1.3,1.1,2.7,1.1,3.9c0,0.1,0,0.3,0,0.4c0,0,0,0,0,0c0.3,0.1,0.7,0.1,1.1,0.2c1,0.1,2,0.3,3,0.8
		c0.3,0,0.5,0.2,0.7,0.3c0.3,0.2,0.5,0.5,0.6,0.7c0.8,0.7,0.8,1.8,0.9,2.3l0,0.1c0,0.4,0.1,0.8,0.2,1.3c0.1,0.3,0.1,0.5,0.2,0.8
		c0,0,0,0,0,0c0,0,0,0,0.1,0c1.3,0,2.7,0,4,0.9c0.5,0.1,0.8,0.3,1,0.5c0.4,0.1,0.7,0.3,0.9,0.5c0.2,0.1,0.4,0.2,0.5,0.4
		c0.1,0,0.3,0.1,0.4,0.1c0.4,0.1,0.8,0.2,1.1,0.2c0.1-0.1,0.1-0.1,0.2-0.2c0,0,0.1-0.1,0.1-0.1c0-0.3,0.1-0.8,0.4-1.1
		c0-0.8,0.1-1.9,1-2.7c0.3-1.3,1.3-1.7,2-1.9c1.1-0.5,2.1-0.6,3.1-0.7c0.3,0,0.5,0,0.8-0.1c0.2-0.3,0.5-0.5,1-0.6
		c0.3-0.2,0.7-0.4,1.3-0.5c2.3-1.2,3.7-1.1,6,0.7c0.8,0.5,1.3,1.1,1.9,1.6c0.3,0.3,0.6,0.7,1,0.9c0.2,0.1,0.4,0.2,0.9,0.1
		c0.2,0,0.3,0,0.5,0c2.3-1,4.2,0.1,5.4,0.9c1.2,0.1,2.2,0.7,3.1,1.4c0.4,0.1,0.8,0.4,1,0.8c0.3,0.3,0.5,0.7,0.6,1.1
		c0.6,0.8,0.9,1.6,1.1,2.4l0,0c0.3,0.3,0.5,0.7,0.7,1c0,0,0.1,0,0.1-0.1c0.1-0.1,0.1-0.1,0.2-0.2c0.2-0.5,0.6-0.9,0.9-1.1l0.2-0.2
		c0,0,0,0,0,0l0.4-0.4c0,0,0,0,0,0c1.8-1.9,2.5-2,4.9-0.8c1.9,0.7,3.7,0.8,5.4,0.5c0.1-0.1,0.2-0.2,0.3-0.3c0.2-0.3,0.4-0.6,0.7-0.7
		c0.1-0.3,0.2-0.5,0.3-0.6c0.1-1.3,0.6-2.5,1.5-3.4c0.2-0.4,0.6-0.8,1.1-0.9c1.1-0.7,2.3-1.1,3.8-1.3c0.5-1.2,1-2.4,1.7-3.4
		c1.2-1.6,2.3-2,4.1-1.4c0.5,0,0.9,0,1.3,0c0.4,0,0.7,0.1,0.9,0l0.1,0c0.3-0.3,0.8-0.7,1.5-0.8c0.3-0.2,0.6-0.3,0.8-0.4
		c0.2-0.2,0.5-0.3,0.9-0.4c0.2-0.2,0.5-0.4,1-0.4c0.5-0.4,1.1-0.5,1.5-0.6c0.1,0,0.2,0,0.2,0c1.3-0.4,2.4-0.3,3.3,0.3
		c0.8,0.6,1.3,1.6,1.4,3c0,1,0,1.9-0.1,2.9c-0.1,1.2,0,2.4,0.3,3.6c1,1.2,1.5,2.8,1.3,4.5c-0.2,1.5,0.1,2.8,0.7,3.9l0.1,0.1
		c0.3,0.2,0.7,0.5,0.9,1.1c0.1,0.1,0.1,0.2,0.2,0.2c0.2,0.1,0.3,0.3,0.5,0.4c1.9,0.7,3.5,1,5.1,1c0.5,0,1.8-0.1,2.9,0.8
		c0.6,0.1,1,0.3,1.2,0.6c0.6,0.2,0.9,0.6,1.2,0.9c0.4,0.2,0.6,0.4,0.8,0.8c0.4,0.1,0.7,0.4,0.8,0.7c0.7,0.7,1.2,1.6,1.4,2.7
		c0.1,0.1,0.2,0.2,0.3,0.3c0.9,0.7,1.7,1.5,2.3,2.3c0.4,0.1,0.6,0.3,0.8,0.5c0.5,0.2,0.8,0.5,1,0.8c1.9,1.6,2.3,3.8,2.6,5.7
		c0,0.3,0.1,0.5,0.1,0.8c0.1,0.1,0.2,0.3,0.3,0.4c0.2,0.1,0.4,0.2,0.6,0.4c1.5,0.4,2.8,0.4,4.1-0.1c0.3-0.1,0.6-0.1,0.9-0.1
		c0.5-0.4,1.2-0.8,2.2-0.9c0.8-0.7,1.8-1.1,3-1.2c1.9-1.5,4.2-1.1,4.9-1c1.7,0.3,3.3,0,5.2-0.8c0.1-0.1,0.1-0.2,0.2-0.3
		c0.7-4.7,1.6-8.9,2.6-12.8c0.2-0.9,0.6-2.1,1.6-3.1c1.2-1.1,2.7-1.3,4.6-0.5c1,0.4,1.9,0.5,2.8,0.4c0.1-0.1,0.2-0.3,0.4-0.4
		c0.6-1.8,0.3-3.7-0.1-5.6c-0.3-0.2-0.5-0.6-0.6-1.1c-1.2-1.4-0.5-3.1-0.3-3.7c0.7-1.8,0.6-3.6-0.5-5.8c-0.4-0.2-0.9-0.6-1.2-1.2
		c-0.3-0.3-0.7-0.8-0.7-1.6c-0.8-1.5-0.5-2.2,0.8-3.6c0.3-0.5,0.8-1.3,1.9-1.7c0.2-0.3,0.5-0.5,1-0.6c0.4-0.4,0.8-0.7,1.2-0.8
		c0.1-0.1,0.3-0.2,0.4-0.3c0.1-0.1,0.2-0.2,0.2-0.3c0.1-0.3,0.3-0.7,0.7-1.1c0,0,0-0.1,0-0.1c0-0.1,0-0.2,0-0.4
		c0-0.4,0.1-0.8,0.3-1.1c0,0,0,0,0,0c0-0.1,0.1-0.4,0.1-0.4c-0.8-2.8,0.5-4.8,2-6.5c0.4-0.6,0.6-1.4,0.9-2.2c0.3-0.8,0.5-1.7,1-2.6
		c0.1-0.5,0.4-0.9,0.8-1.1c0.3-0.4,0.7-0.9,1.3-1.1c0.2-0.2,0.4-0.3,0.6-0.3c0.2-0.2,0.5-0.3,0.6-0.4c0.1-0.2,0.3-0.4,0.6-0.7
		c0.1-0.3,0.2-0.5,0.3-0.6c0.1-1.2,0.6-2.3,1.4-3.1c0.2-0.4,0.5-0.7,0.9-0.8c1.9-1.1,3.3-0.5,4.1,0.1c1.1,0.7,1.4,1.7,1.5,2.5
		c0,0,0.1,0.1,0.1,0.1c0.1,0,0.1,0.1,0.2,0.1c0.1,0,0.2,0,0.3,0c1,0,2.5-0.1,3.6,1.1c0.6,0.4,1.1,0.8,1.3,1.4
		c0.4,0.4,0.6,0.8,0.7,1.1c0.1,0.1,0.1,0.3,0.2,0.4c0.7,0.9,1.4,2.1,1.7,3.6c0.9,2.2,0.5,3.1-1.4,4.1c-0.1,0.2-0.2,0.3-0.3,0.4
		c0,0-0.1,0.1-0.1,0.1c0,0.2-0.1,0.3-0.1,0.5c-0.1,0.3-0.1,0.5-0.2,0.7c0,0,0,0,0.1,0.1c0.2,0.1,0.3,0.2,0.4,0.4
		c0.8,0.4,1.3,0.3,1.8,0.1c0.2-0.3,0.5-0.6,0.8-0.8l0.7-0.8c0.1-0.4,0.2-0.8,0.4-1.1c0.2-0.6,0.4-1.2,0.5-1.7
		c0.1-0.5,0.2-1.8,1.3-2.5c0.5-0.5,1.5-1.3,2.7-1.1c1.3,0.2,2.1,1.4,2.6,2.5c0.1,0.1,0.3,0.2,0.5,0.2c-0.3-0.2-0.5-0.6-0.7-1
		c-0.1-0.1-0.3-0.3-0.4-0.5c-1.2-0.9-1.2-2-0.7-2.9c0.1-0.1,0.1-0.3,0.2-0.5c0.1-0.5,0.4-1.2,0.9-1.7c0.1-0.2,0.2-0.4,0.3-0.5
		c0-0.1,0-0.2,0-0.3c0-0.4,0.1-0.7,0.1-1c-0.2-0.2-0.3-0.4-0.4-0.7c-0.1-0.1-0.2-0.2-0.3-0.4c-0.2-0.1-0.3-0.3-0.4-0.4
		c-0.7-0.4-1.2-0.9-1.6-1.6c-0.3-0.2-0.6-0.5-0.7-0.9c-1.1-1.2-1.5-2.2-1-3.8c0-0.4,0.2-1,0.9-1.3c0.3-0.4,0.7-0.6,1.1-0.7
		c0.8-0.2,1.5,0.3,1.8,0.7c0.4,0.2,0.7,0.2,0.9,0.2c0.2-0.2,0.4-0.4,0.6-0.5c0.2-0.4,0.2-0.8,0.3-1.5c0-0.3,0-0.6,0.1-1l0.1-0.5
		c0,0,0-0.1,0-0.1c0.1-0.4,0-0.9-0.1-1.5c-0.1-0.4-0.1-0.8-0.2-1.3c-0.1-0.1-0.1-0.2-0.2-0.4c-0.5-1-1.2-2.6-0.1-4.3
		c0.3-0.7,0.9-1.1,1.3-1.2c0.1-0.6,0.3-1.4,1-2.1c0.9-1.2,2-1.3,2.9-1.3c0.1-0.6,0.1-1.1-0.1-1.6c-0.7-1.8,0-2.9,0.5-3.4
		c0.9-1.6,2.6-1.6,3.6-1.5l0.2,0c2.3,0,4.3,0.1,6.4,0.9c0.2,0.1,0.4,0.1,0.6,0.1c0-0.5-0.1-1-0.1-1.5c-0.1-1.3-0.2-2.7,0.1-4.1
		c0.1-0.3,0.2-0.6,0.3-0.8c0-0.5,0.2-1,0.7-1.6c0.2-0.6,0.6-1,1.1-1.2c0.8-0.8,1.8-1.3,3.1-1.4c0.4-0.4,0.8-0.6,1.1-0.7
		c0.1-0.2,0.3-0.3,0.5-0.4c0.1-0.1,0.1-0.1,0.2-0.2c0.1-0.3,0.3-0.5,0.5-0.8c0.7-1.5,1.9-2.6,3.7-3.3c1.4-0.5,2.6-0.4,3.5,0.3
		c0.4,0.2,0.7,0.5,0.8,0.9l0.2,0.2c0.5,0.4,0.7,1,0.8,1.4c0.2,0.2,0.4,0.6,0.4,1.1c0.5,0.6,0.7,1.3,0.9,1.9c0.1,0.2,0.1,0.5,0.2,0.6
		c0.2,0.1,0.4,0.4,0.5,0.6c0.5,0.1,1,0,1.5,0c0.1,0,0.3,0,0.5,0c0.5-0.5,1.1-0.7,1.5-0.9c0.1,0,0.2-0.1,0.3-0.1
		c0.2-0.2,0.5-0.5,0.9-0.7c0.4-0.5,0.9-0.7,1.3-0.9c0.8-1.1,2.1-1.2,2.8-1.3c0.3,0,0.7-0.1,1-0.2c1-0.2,2.1-0.4,3.3-0.3
		c0.1,0,0.1,0,0.2,0c0.1-0.7,0.3-1.4,0.7-2.1c0.1-0.8,0.6-2.2,2.1-2.9c0.2-0.4,0.6-0.8,1.3-0.9c0.9-0.5,1.7-0.8,2.6-0.9
		c0.2-0.1,0.3-0.2,0.6-0.3l0,0l0.4-0.5c0.1-0.1,0.1-0.3,0.2-0.4c0.2-0.5,0.4-1.1,1-1.6c0.1-0.2,0.2-0.5,0.5-0.8
		c0.1-0.1,0.2-0.3,0.3-0.4c0.1-0.5,0.4-0.9,0.7-1.1c0.1-0.1,0.1-0.2,0.2-0.2c0.1-0.4,0.4-0.8,0.8-1.2c1.8-2.1,3.9-4,5.7-5.7l0,0
		c0.1-0.2,0.2-0.5,0.5-0.8c0.1-0.2,0.3-0.4,0.4-0.5c0.1-0.1,0.1-0.2,0.2-0.3c0.1-0.1,0.3-0.3,0.5-0.3l0.3-0.3
		c0.8-1.1,1.8-2.1,2.9-2.9c0.2-0.2,0.4-0.4,0.7-0.6c0.2-0.2,0.4-0.3,0.7-0.5c0.3-0.3,0.7-0.5,1.2-0.6c0.6-0.1,1.1,0.3,1.4,0.8
		c0.2,0.5,0.1,1.2-0.3,1.6c-0.1,0-0.1,0.1-0.2,0.1c-0.1,0.1-0.2,0.2-0.3,0.3c-0.2,0.2-0.4,0.2-0.7,0.3c0,0.1-0.1,0.1-0.2,0.1
		c-0.1,0.1-0.3,0.2-0.4,0.2c-0.1,0.1-0.1,0.1-0.2,0.2c0,0-0.1,0.1-0.1,0.1c-0.9,0.7-1.8,1.5-2.5,2.4c0,0,0,0.1-0.1,0.1l-0.6,0.7
		c0,0-0.1,0.1-0.1,0.1c-0.1,0.1-0.2,0.2-0.3,0.3c0,0.1-0.1,0.2-0.2,0.3c-0.1,0.1-0.2,0.2-0.3,0.3c-0.1,0.2-0.2,0.5-0.5,0.8
		c-1.8,1.6-3.9,3.5-5.6,5.6c0,0-0.1,0.1-0.1,0.1c0,0.3-0.1,0.7-0.3,1c-0.1,0.1-0.2,0.2-0.4,0.3c-0.1,0.1-0.1,0.2-0.2,0.2
		c0,0.3-0.1,0.5-0.3,0.7c-0.1,0.1-0.2,0.2-0.3,0.3c0,0.1-0.1,0.1-0.2,0.2c-0.1,0.1-0.1,0.1-0.2,0.2c-0.1,0.2-0.2,0.5-0.5,0.8
		c0,0-0.1,0.1-0.1,0.1c-0.1,0.1-0.2,0.3-0.3,0.6c-0.1,0.3-0.2,0.6-0.4,0.8c0,0,0,0.1-0.1,0.1l-0.3,0.5c-0.1,0.1-0.1,0.2-0.2,0.3
		l-0.5,0.5c-0.1,0.1-0.1,0.1-0.2,0.2c-0.1,0.1-0.2,0.2-0.3,0.3c-0.3,0.2-0.7,0.3-1,0.2c-0.7,0-1.3,0.2-2.1,0.7
		c-0.1,0.1-0.2,0.1-0.3,0.1c0,0.1-0.1,0.1-0.2,0.2l-0.3,0.3c-0.1,0.1-0.3,0.2-0.4,0.2c-0.3,0.1-0.5,0.2-0.7,1c0,0.3-0.1,0.6-0.3,0.8
		c-0.3,0.4-0.4,0.9-0.5,1.5c0,0.1,0,0.2-0.1,0.3c0,0.3-0.1,0.6-0.3,0.9c-0.2,0.2-0.4,0.3-0.6,0.4l-0.1,0.1c-0.5,0.2-1.1,0.5-2,0.5
		c-0.8-0.1-1.7,0.1-2.6,0.2c-0.4,0.1-0.7,0.1-1.1,0.2c-0.6,0.1-0.9,0.2-1,0.3c-0.1,0.2-0.2,0.5-0.4,0.6c-0.3,0.2-0.6,0.3-0.9,0.3
		c-0.1,0.3-0.4,0.6-0.7,0.7c-0.1,0.1-0.3,0.1-0.4,0.1c0,0,0,0-0.1,0.1c-0.1,0.1-0.2,0.1-0.3,0.2c-0.3,0.2-0.7,0.3-1,0.4
		c-0.2,0.1-0.5,0.2-0.5,0.2c0,0.2-0.1,0.4-0.2,0.5c-0.2,0.4-0.6,0.7-1.1,0.7c-0.4,0-0.8-0.1-1-0.4c-0.7,0.1-1.4,0.1-2.1,0
		c-0.4,0-0.9-0.1-1.2-0.5c0,0,0,0,0-0.1l-0.4-0.6c-0.1-0.1-0.2-0.2-0.2-0.2c-0.4-0.6-0.6-1.2-0.8-1.7c-0.1-0.5-0.2-0.8-0.4-1
		c-0.1-0.1-0.2-0.2-0.3-0.3c-0.2-0.2-0.3-0.4-0.3-0.7c-0.1-0.1-0.1-0.1-0.2-0.2c-0.2-0.3-0.3-0.7-0.2-1c0,0,0,0,0-0.1
		c-0.1-0.1-0.1-0.1-0.2-0.2c0,0,0,0,0,0l-0.4-0.6c0,0-0.1-0.1-0.1-0.1c-0.1-0.1-0.2-0.2-0.8,0.1c-1.1,0.4-1.8,1-2.2,1.8
		c-0.1,0.3-0.2,0.5-0.4,0.7c0,0,0,0,0,0c0,0.3-0.1,0.5-0.3,0.7c-0.2,0.2-0.4,0.3-0.6,0.4c-0.1,0.1-0.2,0.2-0.3,0.2
		c-0.1,0.1-0.1,0.1-0.2,0.2c-0.3,0.2-0.6,0.3-0.8,0.4c0,0,0,0,0,0c-0.1,0.3-0.3,0.5-0.5,0.7c-0.3,0.2-0.6,0.3-1,0.2
		c-0.9,0-1.6,0.3-2,0.8c-0.1,0.1-0.3,0.3-0.4,0.3c-0.1,0.1-0.1,0.2-0.3,0.3c0,0-0.1,0.1-0.1,0.1c0.1,0.3,0.1,0.6,0,0.9
		c-0.1,0.2-0.2,0.4-0.4,0.6c-0.2,1-0.1,2,0,3c0.1,0.8,0.1,1.6,0.1,2.4c0.1,0.4,0,0.8-0.3,1.1c-0.2,0.2-0.4,0.3-0.6,0.4
		c-0.8,0.3-1.9,0.7-3.3,0.2c-1.7-0.6-3.5-0.7-5.6-0.7l-0.3,0c-0.8,0-1,0-1.1,0.1c0,0.1-0.1,0.2-0.2,0.4c-0.1,0.1-0.1,0.2-0.2,0.2
		c0,0.1,0,0.2,0.1,0.6c0.6,1.5,0.4,2.8,0,4c0,0.3-0.2,0.6-0.4,0.9c-0.3,0.3-0.7,0.4-1.1,0.4c-0.2,0-0.4,0-0.6,0c-0.8,0-1,0-1.1,0.2
		c0,0.1-0.1,0.2-0.2,0.2c0,0-0.1,0.1-0.1,0.1c-0.1,0.1-0.2,0.3-0.3,0.8c0,0.1,0,0.2-0.1,0.3c0,0.3-0.1,0.7-0.4,0.9
		c-0.1,0.1-0.1,0.1-0.2,0.2c-0.3,0.2-0.6,0.3-0.8,0.4c0,0-0.1,0-0.1,0c0,0,0,0.1-0.1,0.1c-0.3,0.5-0.2,0.8,0.2,1.9
		c0.1,0.3,0.2,0.5,0.3,0.8c0.1,0.2,0.1,0.5,0.1,0.7c0,0.2,0.1,0.5,0.1,0.8c0.1,0.7,0.3,1.6,0,2.5l-0.1,0.5c0,0.2,0,0.5-0.1,0.8
		c-0.1,1-0.1,2.2-1,3.3c-0.1,0.1-0.3,0.3-0.4,0.4c-0.1,0.3-0.3,0.5-0.6,0.6c-1.5,0.8-2.9,0.2-3.6-0.1c-0.1,0-0.1,0-0.2-0.1
		c-0.1,0.4,0,0.6,0.7,1.3c0,0,0.1,0.1,0.1,0.2c0.1,0.1,0.2,0.1,0.3,0.2c0.1,0.1,0.2,0.3,0.3,0.5c0.2,0.5,0.5,0.7,0.7,0.8
		c0.2,0,0.5,0.2,0.7,0.3c0.1,0.1,0.2,0.2,0.2,0.3c0.1,0,0.1,0.1,0.1,0.1c0.1,0.1,0.2,0.2,0.3,0.3c0.1,0.1,0.2,0.1,0.3,0.2
		c0.2,0.2,0.3,0.5,0.3,0.8c0,0,0.1,0.1,0.1,0.1c0.2,0.2,0.3,0.4,0.3,0.6c0.2,0.8,0.1,1.6,0.1,2.3c0,0.2,0,0.4,0,0.6
		c0.1,0.4,0,0.8-0.2,1.1l-0.1,0.1c-0.1,0.2-0.3,0.3-0.4,0.4c0,0,0,0,0,0c-0.1,0.2-0.3,0.3-0.4,0.4c-0.1,0.1-0.2,0.3-0.2,0.6
		c-0.1,0.2-0.1,0.4-0.2,0.5c0.1,0.1,0.2,0.1,0.2,0.2c0.1,0.1,0.1,0.2,0.2,0.2c0.1,0.1,0.3,0.2,0.4,0.3c0.2,0.2,0.3,0.5,0.3,0.8
		c0,0,0,0,0.1,0c0.1,0.1,0.3,0.2,0.4,0.3c0.1,0.1,0.2,0.2,0.2,0.3c0.3,0.5,0.8,1.5,0.6,2.7c0,0.4-0.2,0.8-0.5,1.1
		c-0.3,0.2-0.6,0.3-1,0.3c-1.2,0.1-2.8,0.1-4-1.1c-0.1-0.1-0.2-0.2-0.3-0.3c0-0.1-0.1-0.1-0.1-0.2c-0.4-0.8-0.6-1.1-0.7-1.2
		c-0.1,0.1-0.3,0.2-0.6,0.5c-0.1,0.1-0.2,0.2-0.3,0.2c0,0.1-0.1,0.2-0.1,0.5c-0.1,0.9-0.4,1.6-0.6,2.3c-0.1,0.3-0.2,0.6-0.3,0.9
		c0,0.3-0.1,0.5-0.3,0.8c0,0,0,0,0,0l-1.1,1.3c-0.1,0.1-0.3,0.3-0.4,0.3c-0.1,0.2-0.2,0.3-0.4,0.5c-2.3,1.7-4.5,0.5-5.3,0.1
		c-0.2-0.1-0.3-0.2-0.4-0.3c-0.1-0.1-0.1-0.1-0.2-0.2c-0.2-0.1-0.4-0.2-0.6-0.4c-0.2-0.2-0.3-0.5-0.3-0.8c-0.1-0.9,0.1-1.6,0.3-2.3
		c0.1-0.2,0.1-0.4,0.1-0.6c0-0.4,0.1-0.7,0.3-1c0.1-0.1,0.2-0.2,0.3-0.3c0.1-0.1,0.2-0.2,0.3-0.3c0.1-0.1,0.2-0.2,0.3-0.2
		c0.2-0.1,0.6-0.3,0.9-0.5c-0.1-0.2-0.2-0.5-0.3-0.6c-0.1-0.1-0.1-0.3-0.1-0.4c-0.1-0.8-0.6-1.6-1.2-2.5c-0.2-0.2-0.3-0.5-0.4-0.7
		c-0.1-0.1-0.1-0.3-0.2-0.4c-0.2-0.1-0.3-0.2-0.4-0.4c-0.1-0.2-0.2-0.4-0.2-0.6c-0.1-0.1-0.3-0.1-0.4-0.2c-0.1-0.1-0.1-0.1-0.2-0.2
		c-0.3-0.4-0.6-0.4-1.6-0.4c-0.3,0-0.6,0-0.9,0c-0.4,0.1-0.7,0-1-0.2c-0.1-0.1-0.3-0.2-0.4-0.4c-0.1-0.1-0.2-0.1-0.3-0.2
		c-0.1-0.1-0.1-0.1-0.2-0.2c-0.1-0.1-0.2-0.2-0.3-0.3c-0.3-0.3-0.4-0.7-0.3-1.1c0-0.5-0.1-0.6-0.2-0.7c-0.1,0-0.2-0.1-0.2-0.2
		c-0.2-0.2-0.5-0.4-1.1,0c0,0-0.1,0.1-0.1,0.1c-0.5,0.5-0.8,1.1-0.9,1.9c0.1,0.4,0,0.7-0.2,1.1c-0.1,0.1-0.2,0.2-0.3,0.3
		c-0.1,0.4-0.4,0.7-0.8,0.9c0,0-0.1,0.1-0.1,0.1l-0.1,0.2c0,0.1-0.1,0.1-0.1,0.2c-0.3,0.3-0.6,0.4-0.7,0.5c-0.1,0.1-0.1,0.1-0.2,0.2
		c-0.1,0-0.1,0.1-0.2,0.1c-0.1,0.2-0.3,0.4-0.5,0.5l-0.1,0c-0.2,0.1-0.4,0.1-0.6,0.2c-0.1,0.1-0.1,0.3-0.3,0.4
		c-0.1,0.1-0.2,0.2-0.3,0.2c0,0,0,0,0,0.1c-0.4,0.6-0.6,1.4-0.9,2.2c-0.3,0.9-0.6,1.9-1.1,2.8c0,0.1-0.1,0.2-0.2,0.3
		c-1.5,1.6-1.9,2.8-1.5,4.1c0.2,0.6,0.1,1.1,0,1.5c0,0.1,0,0.2,0,0.3c0,0.2-0.1,0.5-0.2,0.7c0,0,0,0,0,0c0,0.1,0,0.2,0,0.2
		c0,0.4-0.1,1-0.5,1.6c-0.1,0.1-0.2,0.2-0.3,0.3c0,0,0,0.1,0,0.1c0,0.1-0.1,0.2-0.1,0.3c-0.1,0.1-0.1,0.3-0.2,0.4
		c-0.1,0.1-0.1,0.1-0.2,0.2c-0.1,0.2-0.1,0.3-0.2,0.4c-0.1,0.1-0.2,0.2-0.3,0.3c-0.1,0.1-0.2,0.2-0.3,0.3c-0.2,0.2-0.6,0.3-0.9,0.3
		c-0.1,0.2-0.2,0.4-0.4,0.5c-0.2,0.2-0.5,0.3-0.7,0.3c0,0-0.1,0.1-0.1,0.1c-0.2,0.2-0.5,0.3-0.8,0.3c-0.1,0-0.3,0.2-0.6,0.6
		c0,0-0.1,0.1-0.1,0.1c0,0-0.1,0.1-0.1,0.1c-0.2,0.2-0.4,0.5-0.5,0.6c0,0.1,0.1,0.2,0.2,0.3c0,0,0,0.1,0.1,0.1
		c0.1,0.2,0.2,0.5,0.2,0.7c0,0,0,0,0.1,0.1c0.2,0.2,0.3,0.4,0.4,0.6c0.1,0,0.1,0.1,0.2,0.1c0.1,0.1,0.2,0.1,0.3,0.2
		c0.2,0.1,0.4,0.3,0.5,0.5c1,2,2.1,4.9,0.8,8.3c-0.2,0.6-0.3,0.8-0.2,0.9c0.2,0.1,0.3,0.2,0.4,0.4c0.1,0.2,0.2,0.4,0.2,0.6
		c0.1,0.1,0.1,0.1,0.2,0.2c0.1,0.2,0.2,0.4,0.3,0.7l0,0.1c0.5,2.4,1,5.1,0,7.8c0,0.2-0.1,0.4-0.3,0.6c0,0.1-0.1,0.1-0.2,0.2
		c-0.1,0.2-0.2,0.5-0.4,0.7c-0.2,0.2-0.4,0.3-0.7,0.3c-1.6,0.4-3.3,0.3-5.1-0.4c-1.2-0.5-1.6-0.2-1.9,0c0,0-0.1,0.1-0.1,0.1
		c-0.4,0.3-0.5,0.9-0.7,1.6c-1,4-1.9,8.2-2.6,12.9c0,0.3-0.1,0.7-0.3,0.9c-0.1,0.1-0.2,0.2-0.3,0.3c-0.1,0.1-0.1,0.2-0.2,0.2
		c-0.1,0.1-0.3,0.2-0.5,0.3c-2.5,1.2-4.8,1.6-7.2,1.2c-1.3-0.2-2.2-0.1-2.9,0.5c-0.1,0.1-0.2,0.2-0.4,0.3c-0.2,0.1-0.5,0.2-0.8,0.2
		c-0.7,0-1.3,0.3-1.8,0.7c-0.1,0.2-0.3,0.3-0.5,0.4c-0.3,0.1-0.5,0.2-0.8,0.1c-0.4,0-0.6,0.1-0.7,0.2c-0.1,0.2-0.3,0.4-0.6,0.5
		c-0.2,0.1-0.5,0.2-0.7,0.1c-0.1,0-0.2,0-0.3,0c-0.1,0-0.2,0-0.3,0C393.6,339.7,392.6,339.9,391.6,339.9z M383.7,331L383.7,331
		L383.7,331z M424.5,292.9L424.5,292.9L424.5,292.9z M424.9,288.9C424.9,288.9,424.9,288.9,424.9,288.9
		C424.9,288.9,424.9,288.9,424.9,288.9z M233.4,268.4C233.4,268.4,233.4,268.4,233.4,268.4C233.4,268.4,233.4,268.4,233.4,268.4z
		 M528,207.1C528,207.1,528,207.1,528,207.1C528,207.1,528,207.1,528,207.1z"/>
	<path class="st1" d="M568.8,73.5L568.8,73.5c-0.7,0-1.3-0.6-1.3-1.3c0-50.4,0-90.2,0-140.5v-0.7c-0.2,0-0.4,0.1-0.6,0.1
		c-0.3,0.2-0.7,0.3-1.1,0.4c-0.2,0.2-0.6,0.4-1,0.5c-1.2,1.1-2.6,1.6-3.9,1.9l-0.1,0c-1.2,0.9-2.5,1.3-3.6,1.6
		c-0.2,0.1-0.4,0.1-0.6,0.2c-3.1,1.4-6.4,2.7-10.1,2.6c-0.3,0-0.5,0.1-1,0.3c-0.2,0.1-0.4,0.2-0.6,0.3c-0.5,0.5-1.2,0.9-1.9,1
		c-0.2,0.2-0.5,0.4-0.8,0.5c-0.2,0.2-0.5,0.3-0.7,0.4c-0.4,0.3-0.8,0.7-1.5,0.9c-0.3,0.3-0.7,0.5-1.4,0.5c-1.2,0.6-3.5,1.3-4.8,1.6
		c-0.8,0.6-1.7,0.7-2.3,0.9c-0.2,0-0.5,0.1-0.7,0.1c-1.8,0.5-3.6,1-5.4,1.5l-1.6,0.4c-0.7,0.6-1.5,0.9-2,0.9
		c-0.6,0.4-1.3,0.8-2.2,0.9c-0.3,0.2-0.6,0.4-1.1,0.4c-0.5,0.4-1.1,0.7-1.7,0.8c-0.3,0.3-0.7,0.4-1,0.4c-0.2,0.2-0.5,0.3-0.8,0.4
		c-0.2,0.2-0.5,0.4-0.9,0.4c-0.4,0.4-0.9,0.7-1.6,0.8c-0.3,0.4-0.7,0.6-1,0.7c-0.1,0-0.2,0.1-0.2,0.1c-0.1,0.1-0.3,0.3-0.4,0.3
		c-0.8,0.8-1.7,1.3-2.6,1.7c-0.2,0.3-0.5,0.5-0.7,0.5c-0.1,0-0.3,0.1-0.5,0.1c-0.5,0.4-1.3,0.7-2.2,0.8c-1.1,0.7-2.2,0.4-2.9,0.2
		c-0.3,0.2-0.6,0.4-1,0.5c-0.4,0.5-0.9,0.8-1.3,0.9c-0.3,0.4-0.7,0.7-1.2,0.9c-0.1,0.1-0.2,0.2-0.3,0.2c-0.2,0.2-0.4,0.4-0.6,0.5
		c-0.2,0.2-0.4,0.3-0.7,0.4c-0.1,0.2-0.3,0.3-0.5,0.4c-0.2,0.2-0.4,0.4-0.7,0.5c-0.1,0.1-0.3,0.3-0.5,0.4c-0.2,0.2-0.5,0.5-0.9,0.6
		c-0.3,0.4-0.7,0.6-1.2,0.8c-0.1,0.1-0.1,0.1-0.2,0.2c-0.1,0.3-0.4,0.5-0.6,0.6c-0.2,0.2-0.5,0.4-0.9,0.6c-0.1,0.1-0.2,0.1-0.2,0.2
		c-0.3,0.5-0.7,0.8-1,1c-0.1,0.5-0.4,1-1.1,1.4c0,0,0,0,0,0l-0.9,1.1c0,0,0,0,0,0l-0.7,0.9c-0.4,1-1,1.8-1.9,2.3l-0.7,0.6
		c-0.3,0.4-0.6,0.6-0.9,0.8c-0.2,0.2-0.4,0.4-0.7,0.5l-0.2,0.1c-0.2,0.3-0.5,0.5-0.9,0.7c-0.1,0.1-0.2,0.2-0.3,0.3
		c-0.4,0.7-1,1.2-1.7,1.7l-0.9,0.7c-0.3,0.4-0.6,0.6-0.9,0.8c-0.1,0.1-0.2,0.2-0.4,0.3c-0.2,0.3-0.5,0.6-0.7,0.7c0,0,0,0-0.1,0
		c-0.3,0.5-0.7,0.7-0.9,0.8c-0.1,0-0.2,0.1-0.3,0.1c-0.2,0.2-0.5,0.4-0.8,0.6c-0.2,0.2-0.4,0.3-0.6,0.4c-0.1,0.2-0.3,0.3-0.5,0.4
		c-0.1,0.1-0.3,0.3-0.5,0.4c-0.2,0.2-0.5,0.4-0.8,0.5c-0.2,0.2-0.4,0.4-0.8,0.5c-0.6,0.6-1.2,0.9-1.8,1.2c-0.2,0.2-0.4,0.4-0.7,0.5
		c-0.1,0.1-0.2,0.2-0.4,0.3c-0.2,0.2-0.4,0.4-0.6,0.5c-0.2,0.2-0.4,0.3-0.7,0.5c-0.3,0.4-0.7,0.6-1,0.8c-0.2,0.2-0.5,0.4-0.7,0.5
		c-0.1,0.1-0.2,0.3-0.4,0.4c-0.2,0.3-0.6,0.6-1.2,0.7c-1.5,1.4-3.5,0.9-4.3,0.7c-1.6-0.4-3.1-0.5-4.6-0.3c-0.3,0.2-0.6,0.3-0.9,0.4
		c-0.5,0.4-1,0.4-1.4,0.5c-0.1,0-0.3,0-0.3,0.1c-1.1,0.6-2.3,0.6-3.5,0.1l-0.2,0c-2-0.3-4.1-0.6-6-1.6c-0.2-0.1-0.3-0.2-0.4-0.3
		c-0.8-0.1-1.5-0.5-2.1-0.9c-1.6-0.5-3.2-0.2-5.3,0.5c-0.1,0.1-0.3,0.2-0.4,0.2c-0.8,0.5-1.7,1-2.8,1.1c-0.7,0.6-1.4,0.9-2.3,0.9
		c-1.6,1.2-3.4,1.3-5,1.2c-0.2,0.2-0.4,0.4-0.7,0.6l0,0c-0.3,0.4-0.8,1.1-1.7,1.4c-0.4,0.3-0.8,0.7-1.4,0.8
		c-0.1,0.1-0.3,0.2-0.5,0.3c-0.2,0.2-0.4,0.4-0.6,0.5c-0.2,0.2-0.6,0.5-1.1,0.6c-1.3,1.1-2.9,1.2-4.1,1.2l-0.4,0
		c-0.5,0-1.1,0.1-1.6,0.1c-1.5,0.1-2.9,0.1-4.3,0.3c-0.4,0.4-0.9,0.7-1.6,0.9c-0.4,0.4-0.9,0.6-1.1,0.8c0,0,0,0,0,0
		c-0.3,0.4-0.7,0.6-0.9,0.6c-0.1,0-0.1,0-0.2,0c-0.3,0.2-0.7,0.5-1.1,0.6c-0.3,0.3-0.7,0.6-1.3,0.6c-2.8,1.9-6.5,1.8-9.4-0.1
		c-0.2,0-0.5-0.1-0.8-0.4c-0.1,0-0.2-0.1-0.3-0.1c-0.1-0.1-0.3-0.2-0.4-0.3c-1.3-0.2-2.5-0.7-3.5-1.3c-0.2-0.1-0.4-0.1-0.5-0.1
		c-0.7-0.2-1.5-0.4-2.2-1.1c-0.9-0.2-1.6-0.7-2.1-1.1c-0.1-0.1-0.2-0.1-0.3-0.2c-0.7-0.2-1.2-0.7-1.5-1.3c-0.6-0.4-2.1-1.2-2.5-1.3
		c-0.2-0.1-0.4-0.2-0.6-0.3l-0.4,0c-0.2,0.1-0.4,0.2-0.7,0.3c0,0-0.1,0-0.1,0.1c-0.4,0.3-0.9,0.7-1.7,0.8c-1.2,0.8-2.7,0.8-4-0.2
		c-0.6-0.4-1.1-0.8-1.4-1.3c-0.3-0.3-0.5-0.7-0.6-0.9c0,0,0,0-0.1-0.1c0,0-0.1,0-0.1,0c0,0-0.1,0.1-0.2,0.4c-0.2,0.5-0.4,0.8-0.7,1
		c-0.3,0.7-0.9,1.4-2.3,1.6c-1,0.7-2,0.9-2.9,1c-0.3,0-0.5,0.1-0.8,0.1c-0.4,0.4-1,0.8-1.8,0.9c-0.7,0.7-1.5,1.2-2.4,1.2
		c-1.1,0-1.8-0.8-2.5-1.5c0,0,0,0-0.1-0.1c0,0,0,0,0,0c0,0,0,0,0,0l0,0c0,0-0.1-0.1-0.1-0.1l-1.2-1.8c-1.4,0.9-2.3,1-3.7-0.4l0,0
		c-0.4-0.2-0.9-0.6-1.2-1.3c-0.2-0.5-0.1-1.1,0.2-1.5c1.4-1.5,3.1-1.9,4.5-1.9c0.1,0,0.1-0.1,0.2-0.1c0-0.4,0.2-1,0.7-1.5
		c0.3-0.5,0.9-1,2-0.9l1.3,0c0.9,0,1.9,0,2.8,0.1c1.6,0.1,2.8-0.2,3.9-0.8l0.1-0.1c0.3-0.2,1-0.6,1.8-0.4c0.2,0,0.3,0.1,0.5,0.3
		c0.5-0.5,1-0.8,1.6-1c-0.7,0-1.1-0.4-1.4-0.7c-0.8-1-0.2-2.3,0-2.7c0.1-0.3,0.3-0.6,0.5-0.8c-0.2-0.3-0.4-0.6-0.5-0.9
		c-0.2-0.2-0.4-0.4-0.5-0.8c-0.1-0.1-0.2-0.2-0.3-0.3c0,0,0,0,0,0l0,0.1c0.9,1.4,0.5,2.5,0,3.1c-0.1,0.5-0.3,1.2-1.1,1.7
		c-0.2,0.4-0.5,0.7-0.9,1c-0.1,0.2-0.3,0.3-0.5,0.4c-0.2,0.3-0.6,0.6-1.1,0.7c-2.7,1.4-5.4,1.3-8-0.4c-0.6,0-1.1-0.3-1.3-0.6
		c-0.4-0.1-0.6-0.3-0.8-0.5c-0.3-0.2-0.7-0.4-1-0.9c-0.2-0.1-0.3-0.2-0.4-0.3c-0.3-0.2-0.6-0.4-0.8-0.6l-1.3-1.1
		c-1.2-0.5-1.8-1.5-2.3-2.3l-0.2-0.3c-0.2-0.1-0.5-0.3-0.6-0.5c-0.2-0.2-0.4-0.4-0.6-0.7c-0.1-0.1-0.3-0.3-0.5-0.4
		c-0.4-0.3-1-0.8-1.4-1.3c-0.7-0.2-1.4-0.3-2.1-0.3c-0.8-0.1-1.6-0.1-2.4-0.3l-0.3-0.1c-0.6-0.1-1.3-0.3-1.9-0.7
		c-0.6,0-1-0.3-1.3-0.6c-0.3-0.1-0.5-0.3-0.7-0.4c-0.2-0.1-0.5-0.3-0.6-0.5c-0.2-0.1-0.4-0.2-0.6-0.4c-0.3-0.1-0.5-0.3-0.7-0.5
		c-0.1-0.1-0.3-0.2-0.4-0.3c-0.5-0.2-0.8-0.4-1.1-0.7c-0.1,0-0.2,0-0.3-0.1c-0.2-0.1-0.6-0.3-0.9-0.7c-0.1-0.1-0.2-0.2-0.3-0.3
		c-0.1-0.1-0.2-0.1-0.4-0.2c0,0-0.1,0-0.1,0c-0.3-0.1-0.5-0.3-0.7-0.6c-0.3-0.1-0.5-0.3-0.7-0.4c-0.3-0.1-0.5-0.3-0.7-0.4
		c-0.1,0-0.2-0.1-0.2-0.2c-0.8,0.2-1.5,0.2-2.1-0.1c-0.9-0.5-1.2-1.4-1.4-2.1c0,0,0,0,0,0c0,0-0.1-0.1-0.1-0.1c-1.1,1.1-2.5,1-3.3,1
		c-0.5,0-1,0-1.4-0.1c-1.1-0.1-2.1-0.2-3.1,0.2c-0.8,0.3-1.6,0.1-2.1-0.4c-0.2-0.3-0.6-0.8-0.5-1.7c-0.2,0.1-0.4,0.2-0.5,0.3
		c-0.1,0.1-0.2,0.1-0.3,0.2c-0.1,0-0.1,0.1-0.2,0.1c-0.8,0.4-1.6,0.8-2.5,0.2c-0.8-0.6-0.7-1.5-0.7-2c0.1-0.8,0.3-1.6,0.7-2.3
		c-1.5,0-3.1,0.1-4.7,0.2c-1.2,0.1-2.4,0.2-3.7,0.2c-4.5,0.1-8.9,0.4-14.1,0.7c-1.4,0.1-2.8,0.1-4.2,0.2c-1.7,0-3.5,0.1-5.3,0.2
		c-2.9,0.2-5.9,0.3-8.7,0.4c-1.6,0-3.1,0.1-4.7,0.2c-2.8,0.1-5.6,0.3-8.3,0.4l-3.4,0.2c-0.4,0.2-0.9,0.2-1.4,0.1L232-37.5
		c-1.3,0.5-2.6,0.4-3.7,0.3c-0.3,0-0.5,0-0.8,0c-1.3,0-2.7,0-4.1,0c-2.3,0-4.7,0-7,0.2c-0.5,0.2-1,0.2-1.5,0.1
		c-1.9,0.1-3.8,0.1-5.6,0.1c-2.4,0-5,0-7.4,0.2c-0.6,0.2-1.2,0.3-1.8,0.1c-0.5,0-0.9,0-1.4,0c-1.1,0-2.3,0.1-3.5,0
		c0,0.1,0,0.2,0,0.2l0,0.2l-0.1,50.9l0,0.1c0,0.2,0.1,0.5,0.1,0.8c0,6.7,0,13.4,0,20.1c0,0.4-0.1,0.8-0.1,1.1c0,0.1,0,0.2,0,0.3
		l-0.1,10c0,0.7-0.6,1.3-1.3,1.3c0,0,0,0,0,0c-0.7,0-1.3-0.6-1.3-1.4l0.1-10c0-0.1,0-0.1,0-0.2c0-0.1,0-0.3,0.1-0.4
		c0-0.2,0.1-0.5,0.1-0.6c0-6.7,0-13.4,0-20.1c0-0.1,0-0.2,0-0.3c0-0.1,0-0.2-0.1-0.3c0-0.1,0-0.1,0-0.2l0.1-51.2c0-0.1,0-0.2,0-0.2
		c-0.1-0.8,0.1-1.4,0.5-1.9c0.7-0.7,1.6-0.7,1.9-0.7c1.2,0,2.5,0,3.7,0c0.5,0,1,0,1.6,0c0.1,0,0.3,0,0.4,0.1c0.2,0.1,0.3,0,0.3,0
		c0.1-0.1,0.3-0.1,0.5-0.1c2.7-0.3,5.3-0.3,7.9-0.3c1.9,0,3.8,0,5.7-0.1c0.1,0,0.3,0,0.4,0c0.1-0.1,0.3-0.1,0.5-0.1
		c2.5-0.2,5-0.2,7.5-0.2c1.3,0,2.7,0,4.1,0c0.4,0,0.7,0,1,0c1,0.1,1.9,0.1,2.8-0.2c0.1-0.1,0.3-0.1,0.5-0.1l19.2-0.6
		c0.1,0,0.2,0,0.4,0c0.2-0.1,0.3-0.1,0.5-0.1l3.7-0.2c2.8-0.2,5.6-0.3,8.4-0.4c1.6-0.1,3.2-0.1,4.7-0.2c2.8-0.1,5.7-0.2,8.6-0.4
		c1.8-0.2,3.7-0.2,5.4-0.3c1.4,0,2.8-0.1,4.1-0.2c5.3-0.3,9.7-0.6,14.2-0.7c1.2,0,2.4-0.1,3.5-0.2c1.7-0.1,3.5-0.3,5.3-0.2
		c0,0,0.1-0.1,0.1-0.1c0.1-0.1,0.2-0.2,0.4-0.3c1.1-0.6,1.8-0.4,2.2,0c0.3,0.3,0.8,0.9,0.4,2.1c0,0.1-0.1,0.2-0.2,0.4
		c0,0,0,0.1,0,0.1c0,0.2,0,0.3-0.1,0.5l0.1,0c0.2,0,0.4,0,0.6,0c1-0.1,1.6,0.2,2.1,0.8c0.4,0.5,0.4,1.2,0.2,1.9c0,0.1,0,0.1,0,0.2
		c1-0.1,2-0.1,2.9,0c0.4,0,0.8,0.1,1.3,0.1c1.1,0,1.3-0.1,1.5-0.5c0.3-0.6,1.1-1.4,2.6-0.8c0.2,0.1,0.4,0.2,0.6,0.3
		c0.2,0.2,0.3,0.4,0.4,0.6c0.1,0.1,0.1,0.1,0.2,0.2c0,0,0,0,0,0.1c0.2,0.1,0.3,0.3,0.4,0.5s0.1,0.4,0.2,0.7c0,0.1,0.1,0.3,0.1,0.4
		c0,0,0.1,0,0.2-0.1c1-0.3,1.8,0.2,2.3,0.5c0.1,0,0.2,0.1,0.3,0.2c0.2,0.1,0.4,0.2,0.6,0.3c0,0,0,0,0,0c0,0,0,0,0,0
		c0.2,0,0.5,0.1,0.7,0.3c0.1,0,0.1,0.1,0.2,0.1c0.2,0,0.4,0.1,0.6,0.2l0.1,0c0.2,0.1,0.3,0.3,0.4,0.4c0.1,0,0.1,0.1,0.2,0.1
		c0.1,0.1,0.2,0.3,0.3,0.5c0.3,0,0.6,0.2,0.8,0.4l0.2,0.2c0.1,0.1,0.2,0.2,0.2,0.2c0.3,0,0.6,0.1,0.9,0.2c0.1,0.1,0.3,0.2,0.4,0.4
		c0.1,0.1,0.2,0.1,0.2,0.2c0.1,0.1,0.1,0.2,0.2,0.2c0.1,0,0.2,0.1,0.2,0.2c0,0,0,0,0.1,0.1c0.3,0,0.5,0.1,0.7,0.3
		c0.1,0.1,0.2,0.2,0.3,0.3c0.1,0.1,0.2,0.1,0.2,0.2c0,0,0,0,0.1,0.1c0.2,0,0.4,0.1,0.5,0.2c0.1,0.1,0.2,0.1,0.3,0.2
		c0.2,0,0.4,0.1,0.5,0.2c0.1,0.1,0.2,0.2,0.3,0.3c0.2,0.2,0.5,0.3,1.1,0.4l0.4,0.1c0.6,0.1,1.2,0.2,1.9,0.2c1,0.1,2,0.1,3.1,0.5
		c0.3,0.1,0.5,0.2,0.7,0.4c0.1,0.1,0.2,0.2,0.2,0.3c0.2,0.3,0.5,0.6,0.9,0.9c0.3,0.2,0.6,0.5,0.9,0.8c0,0,0.1,0.1,0.1,0.1
		c0,0,0,0,0,0c0,0,0,0,0,0l0,0c0.1,0.1,0.1,0.2,0.2,0.3c0.1,0.1,0.2,0.2,0.3,0.3c0.1,0.1,0.2,0.2,0.3,0.3l0.5,0.7
		c0.1,0.1,0.1,0.1,0.1,0.2c0.4,0.7,0.7,1.1,1.2,1.3c0.2,0.1,0.3,0.1,0.4,0.2l1.4,1.2c0.1,0,0.1,0.1,0.2,0.2c0,0,0,0,0,0
		c0.2,0,0.5,0.1,0.7,0.3c0.1,0.1,0.2,0.2,0.3,0.4c0.1,0,0.1,0.1,0.2,0.1c0.2,0.2,0.3,0.4,0.4,0.6c0.2,0.1,0.3,0.2,0.5,0.3
		c0,0,0.1,0.1,0.1,0.1c0.3,0,0.5,0.1,0.7,0.3c0.1,0,0.1,0.1,0.1,0.1c0.2,0,0.4,0.1,0.5,0.2c0,0,0.1,0,0.1,0.1c2,1.4,3.8,1.5,5.8,0.4
		c0.1-0.1,0.1-0.2,0.2-0.2c0.1-0.1,0.1-0.1,0.2-0.2c0.1-0.1,0.1-0.2,0.2-0.3c0.1-0.1,0.3-0.2,0.5-0.3c0.1-0.2,0.1-0.3,0.2-0.4
		c0.1-0.2,0.3-0.3,0.6-0.4c0-0.2,0.1-0.5,0.2-0.7c0.1-0.1,0.2-0.3,0.3-0.4c0,0,0,0,0,0c0,0-0.1-0.1-0.1-0.2c0,0-0.1-0.1-0.1-0.1
		c-0.2-0.3-0.3-0.6-0.3-0.9l0-0.7c-0.1-0.5,0-1,0.3-1.3c0.1-0.1,0.1-0.1,0.2-0.2c2.3-1.6,3.1-1.5,4.8,0.7c0,0,0,0,0.1,0.1
		c0.1,0.1,0.2,0.2,0.3,0.2c0.2,0.2,0.3,0.6,0.3,0.9c0.2,0.1,0.4,0.3,0.6,0.5c0.2,0.3,0.3,0.7,0.2,1.1c0,0,0,0,0,0.1
		c0,0.3,0.1,0.8-0.2,1.3c0.3-0.1,0.6-0.3,0.8-0.5c0.2-0.2,0.5-0.3,0.8-0.3c0,0,0,0,0.1,0c1.3-0.6,2.5-0.3,3.4-0.1
		c0.4,0.1,0.7,0.2,1,0.2c0.5-0.2,1.1-0.1,1.4,0.3c0.2,0.2,0.3,0.4,0.3,0.6c0.3,0.9,0.2,1.7,0.1,2.3c0,0.2-0.1,0.4-0.1,0.6
		c0.1,0.4,0.1,0.9-0.1,1.2c-0.1,0.2-0.2,0.3-0.4,0.4c-0.1,0.2-0.2,0.3-0.4,0.4c-0.3,0.2-0.7,0.3-1.1,0.2c-1,0-1.8,0-2.5,0.4
		c-0.9,0.6-2.1,0.6-3,0.2c-0.9-0.4-1.5-0.4-2.2,0.6c-0.1,0.3-0.3,0.6-0.6,0.8c-0.5,0.3-1.1,0.2-1.6-0.1c0,0-0.1-0.1-0.1-0.1
		c-0.2,0-0.4-0.1-0.5-0.2c-1.5,0.8-3.1,1.1-5.2,1c-0.9,0-1.8,0-2.8-0.1l-1.1,0c0,0,0,0,0,0c-0.1,0.1-0.1,0.1-0.2,0.2
		c0,0.4-0.1,1.3-1,1.8c-0.1,0.1-0.2,0.2-0.3,0.3c0,0,0,0,0,0c0.1,0.1,0.1,0.1,0.2,0.2c0,0,0.1,0.1,0.1,0.1l1.7,2.5
		c0.3,0.3,0.5,0.5,0.6,0.6c0.1-0.1,0.3-0.2,0.7-0.6c0-0.1,0.1-0.1,0.2-0.2c0.3-0.2,0.6-0.3,1-0.3c0.2,0,0.3-0.2,0.6-0.4
		c0-0.1,0.1-0.1,0.2-0.2c0.2-0.1,0.4-0.2,0.6-0.3c0.5-0.1,0.9-0.2,1.3-0.3c0.8-0.1,1.3-0.2,1.7-0.5c0.1-0.2,0.3-0.3,0.5-0.4
		c0.2-0.1,0.4-0.1,0.6-0.1c0.1,0,0.2,0,0.3,0c0-0.2,0.1-0.4,0.2-0.5c0.1-0.2,0.3-0.4,0.6-0.6c0.3-0.8,0.8-1.3,1.5-1.6
		c0.8-0.3,1.6-0.3,2.6,0.1c0.2,0.1,0.4,0.2,0.5,0.4c0.1,0.1,0.3,0.3,0.3,0.4c0.1,0.1,0.1,0.3,0.2,0.4c0,0.1,0.1,0.1,0.1,0.2
		c0.2,0.1,0.3,0.3,0.4,0.5c0,0.1,0.1,0.2,0.4,0.4c0.1,0,0.1,0.1,0.2,0.1c0.5,0.4,0.7,0.4,1,0.2c0,0,0.1-0.1,0.2-0.1
		c0.3-0.2,0.6-0.3,0.9-0.3c0.1,0,0.3-0.2,0.4-0.3c0.2-0.1,0.3-0.3,0.5-0.4c0.1-0.1,0.2-0.3,0.4-0.4c0.3-0.2,0.6-0.3,1-0.2l1.2,0
		c0.4-0.1,0.8,0,1.1,0.2c0,0,0,0,0,0l0,0c0,0,0,0,0,0c0.1,0.1,0.1,0.1,0.2,0.2c0.9,0.3,2.7,1.2,3.5,1.9c0.1,0.1,0.2,0.1,0.3,0.2
		c0,0,0,0,0,0c0,0,0,0,0,0l0,0c0.1,0.1,0.2,0.3,0.2,0.4c0.1,0,0.2,0.1,0.3,0.2c0.2,0.1,0.4,0.3,0.6,0.5c0.4,0.3,0.7,0.5,1,0.6
		c0.3,0,0.7,0,1,0.3c0.2,0.1,0.3,0.3,0.4,0.4c0.2,0.2,0.4,0.3,1,0.4c0.2,0,0.4,0.1,0.5,0.1c0.2,0,0.3,0.1,0.5,0.2
		c1,0.6,1.9,1,2.9,1.1c0.3-0.1,0.7,0,1,0.2c0.1,0.1,0.2,0.1,0.2,0.2c0.2,0,0.3,0.1,0.5,0.2l0.1,0c0.2,0.1,0.4,0.3,0.5,0.5
		c2.1,1.5,4.8,1.6,6.8,0.2c0.1-0.1,0.2-0.1,0.3-0.2c0.2-0.1,0.3-0.1,0.5-0.2c0.1-0.1,0.1-0.1,0.2-0.2c0.3-0.2,0.5-0.3,0.9-0.3
		c0.1,0,0.2-0.1,0.4-0.4c0.2-0.3,0.6-0.5,0.9-0.5c0,0,0,0,0,0c0.2-0.2,0.5-0.3,0.7-0.3c0,0,0,0,0,0c0.1-0.3,0.3-0.5,0.6-0.7
		c0.3-0.2,0.6-0.2,0.9-0.2c0.2,0,0.2,0,0.3-0.1c0.1-0.2,0.3-0.4,0.5-0.5c0.2-0.1,0.4-0.2,0.7-0.2c1.7-0.3,3.4-0.4,5.1-0.4
		c0.5,0,1.1-0.1,1.6-0.1l0.4,0c1.2-0.1,2-0.1,2.6-0.7c0.1-0.1,0.1-0.2,0.2-0.2c0.2-0.2,0.4-0.3,0.7-0.3c0,0,0.1-0.1,0.1-0.1
		c0.1-0.1,0.1-0.1,0.2-0.1c0.1-0.1,0.2-0.2,0.3-0.3c0.1-0.1,0.3-0.2,0.4-0.2c0.1-0.1,0.1-0.1,0.2-0.2c0.2-0.2,0.5-0.3,0.8-0.3
		c0.1,0,0.3-0.2,0.6-0.4c0,0,0.1-0.1,0.1-0.1c0.2-0.2,0.4-0.3,0.7-0.3c0.1-0.1,0.3-0.3,0.4-0.5c0.1-0.1,0.2-0.2,0.3-0.4
		c0.2-0.2,0.4-0.3,0.6-0.4c0,0,0.1-0.1,0.1-0.1c0.1-0.1,0.3-0.3,0.5-0.5c0.3-0.2,0.6-0.4,1-0.3c1.6,0.1,2.9,0.1,4-0.7
		c0.1-0.2,0.3-0.3,0.5-0.4c0.3-0.1,0.6-0.1,0.8-0.1c0.2,0,0.5,0,0.7-0.3c0.1-0.2,0.3-0.3,0.5-0.4c0.3-0.1,0.5-0.2,0.8-0.2
		c0.6,0,1.3-0.4,2-0.8c0.2-0.1,0.5-0.3,0.7-0.4c0.1-0.1,0.3-0.1,0.4-0.1c2-0.6,4.3-1.2,6.7-0.4c0.2,0,0.4,0.1,0.6,0.2c0,0,0,0,0,0
		l0,0c0.5,0.4,0.9,0.6,1.2,0.6c0.3,0,0.6,0,0.9,0.2c0.1,0.1,0.2,0.1,0.2,0.2c0,0.1,0.1,0.1,0.1,0.2c1.5,0.8,3.2,1,5,1.3l0.4,0.1
		c0.1,0,0.3,0.1,0.4,0.1c0.5,0.2,0.9,0.2,1.3,0c0.4-0.2,0.8-0.3,1.1-0.3c0.1,0,0.2,0,0.2,0c0,0,0.1-0.1,0.1-0.1
		c0.2-0.2,0.5-0.3,0.7-0.3c0.1-0.1,0.1-0.1,0.2-0.2c0.2-0.2,0.5-0.3,0.8-0.3c1.9-0.2,3.9-0.1,5.9,0.4c1.3,0.3,1.7,0.1,2-0.2
		c0.1-0.1,0.2-0.2,0.3-0.3c0.2-0.2,0.4-0.2,0.7-0.3c0,0,0,0,0.1-0.1c0.1,0,0.1-0.1,0.2-0.1c0.1-0.1,0.2-0.2,0.3-0.3
		c0.2-0.2,0.5-0.3,0.7-0.3c0,0,0,0,0,0c0.1-0.1,0.3-0.2,0.5-0.3c0,0,0,0,0,0c0.1-0.2,0.2-0.4,0.4-0.6c0.2-0.2,0.4-0.3,0.7-0.3
		c0,0,0.1-0.1,0.1-0.1c0.1-0.1,0.1-0.1,0.2-0.1c0.1-0.1,0.1-0.2,0.2-0.2c0.1-0.1,0.1-0.1,0.2-0.2c0.1-0.1,0.2-0.3,0.4-0.4
		c0.2-0.1,0.4-0.2,0.7-0.3c0,0,0,0,0.1-0.1c0.2-0.2,0.4-0.3,0.6-0.3c0.5-0.2,0.9-0.4,1.1-0.6c0.1-0.2,0.3-0.4,0.4-0.5
		c0.1-0.1,0.2-0.1,0.4-0.2c0,0,0.1-0.1,0.1-0.1c0.2-0.2,0.5-0.3,0.8-0.4c0,0,0.1-0.1,0.1-0.1c0.1-0.1,0.1-0.1,0.2-0.1
		c0-0.1,0.1-0.1,0.1-0.2c0.1-0.1,0.2-0.2,0.3-0.2c0.1-0.1,0.2-0.2,0.3-0.3c0.2-0.2,0.5-0.3,0.7-0.3c0,0,0.1-0.1,0.1-0.1
		c0.2-0.1,0.3-0.2,0.5-0.3c0,0,0.1-0.1,0.2-0.2c0.1-0.1,0.3-0.3,0.4-0.4c0.2-0.2,0.5-0.3,0.7-0.3c0.1-0.1,0.2-0.2,0.3-0.3
		c0.1-0.3,0.2-0.5,0.4-0.7c0,0,0.1-0.1,0.1-0.1c0.1-0.1,0.2-0.2,0.3-0.3c0.2-0.2,0.5-0.3,0.7-0.3c0,0,0.1-0.1,0.1-0.1
		c0,0,0,0,0.1-0.1l1.1-0.9c0,0,0.1-0.1,0.1-0.1c0.4-0.3,0.8-0.6,1-1c0-0.1,0.1-0.1,0.1-0.2c0.1-0.1,0.1-0.1,0.2-0.2
		c0.1-0.2,0.2-0.4,0.4-0.6c0.2-0.2,0.5-0.3,0.8-0.3c0-0.1,0.1-0.1,0.2-0.1c0,0,0.1,0,0.1-0.1l0.6-0.4c0,0,0,0,0,0
		c0.2-0.2,0.5-0.4,0.7-0.5c0.1-0.1,0.1-0.2,0.2-0.2c0,0,0,0,0,0l1.1-0.9c0.1,0,0.1-0.1,0.2-0.1c0.4-0.2,0.7-0.6,0.8-1.1
		c0.1-0.2,0.1-0.3,0.2-0.4l0.8-1c0,0,0-0.1,0.1-0.1l1.1-1.3c0.1-0.1,0.1-0.1,0.2-0.2c0,0,0.1,0,0.1-0.1c0-0.3,0.1-0.5,0.3-0.8
		c0.3-0.3,0.5-0.5,0.8-0.7c0.1,0,0.1-0.1,0.2-0.1c0-0.2,0.1-0.3,0.2-0.5c0.1-0.2,0.3-0.4,0.5-0.5c0.1-0.1,0.2-0.3,0.4-0.4
		c0.2-0.2,0.6-0.3,0.9-0.3c0,0,0,0,0,0c0,0,0.1-0.1,0.1-0.1c0,0,0,0,0,0c0.1-0.1,0.1-0.1,0.2-0.2c0.1-0.2,0.2-0.3,0.3-0.5
		c0.3-0.3,0.6-0.4,1-0.4c0.1-0.2,0.3-0.4,0.5-0.6c0.2-0.1,0.4-0.2,0.7-0.2c0,0,0-0.1,0.1-0.1c0.1-0.1,0.1-0.1,0.2-0.2
		c0.1-0.1,0.2-0.2,0.3-0.3c0.2-0.2,0.5-0.3,0.7-0.3c0,0,0,0,0.1-0.1c0.1-0.1,0.1-0.1,0.2-0.2c0.1-0.1,0.2-0.2,0.3-0.3
		c0.2-0.2,0.5-0.3,0.7-0.3c0,0,0,0,0.1-0.1c0.1-0.1,0.1-0.1,0.2-0.2c0.1-0.1,0.1-0.2,0.2-0.2c0.1-0.1,0.1-0.1,0.2-0.2
		c0.1-0.1,0.2-0.3,0.3-0.4c0.2-0.2,0.5-0.3,0.8-0.3c0.1-0.2,0.2-0.4,0.4-0.6c0.2-0.2,0.5-0.3,0.8-0.3c0.1-0.2,0.2-0.4,0.4-0.6
		c0.2-0.2,0.5-0.3,0.8-0.3c0.1-0.2,0.2-0.4,0.4-0.6c0.4-0.3,0.9-0.4,1.4-0.2c0.2,0.1,0.5,0.1,0.7,0.2c0.2,0.1,0.6,0.2,0.7,0.2
		c0.1-0.2,0.3-0.3,0.5-0.4c0.3-0.1,0.6-0.1,0.8-0.1c0,0,0,0,0,0c0.3,0,0.7-0.2,1.3-0.6c0.2-0.2,0.5-0.3,0.7-0.3c0,0,0.1,0,0.1,0
		c0.9-0.4,1.8-0.9,2.3-1.6c0.2-0.2,0.4-0.4,0.6-0.4c0.2-0.1,0.4-0.2,0.5-0.3c0,0,0,0,0.1,0c0.1-0.3,0.2-0.5,0.5-0.7
		c0.3-0.2,0.7-0.3,1.1-0.3c0.1,0,0.2,0,0.2,0c0.1-0.2,0.2-0.4,0.4-0.6c0.2-0.1,0.4-0.2,0.7-0.3c0.1-0.1,0.2-0.2,0.3-0.2
		c0.2-0.1,0.3-0.2,0.5-0.2c0.1-0.1,0.2-0.2,0.3-0.2c0.2-0.1,0.5-0.2,0.8-0.2c0.1-0.1,0.2-0.2,0.3-0.2c0.3-0.2,0.6-0.2,0.8-0.2
		c0.3,0,0.5-0.1,0.7-0.3c0.1-0.1,0.2-0.3,0.4-0.4c0.2-0.1,0.4-0.2,0.6-0.2c0.1-0.1,0.3-0.3,0.5-0.3c0.3-0.1,0.5-0.1,0.8-0.1
		c0.4,0,0.9-0.2,1.6-0.7c0.2-0.2,0.5-0.2,0.8-0.2c0.2,0,0.4-0.1,0.4-0.2c0.1-0.2,0.3-0.3,0.4-0.4c0.1-0.1,0.3-0.1,0.4-0.2l2-0.5
		c1.8-0.5,3.6-1,5.4-1.5c0.3-0.1,0.6-0.1,1-0.2c0.5-0.1,0.9-0.2,1.1-0.3c0.1-0.1,0.2-0.2,0.3-0.3c0.2-0.1,0.4-0.2,0.6-0.2
		c1.1-0.2,3.8-1.1,4.5-1.5c0.2-0.1,0.4-0.2,0.5-0.2c0,0,0.1-0.1,0.1-0.1c0.3-0.2,0.6-0.3,0.9-0.3c0.1,0,0.3-0.2,0.5-0.4l0.3-0.2
		c0,0,0.1-0.1,0.1-0.1c0.1-0.1,0.2-0.2,0.3-0.3c0.2-0.1,0.4-0.2,0.6-0.3c0.1-0.1,0.2-0.1,0.3-0.2c0.3-0.2,0.6-0.2,0.9-0.2
		c0.3,0,0.5-0.1,0.6-0.2c0.1-0.2,0.3-0.4,0.5-0.5c0.1,0,0.1-0.1,0.2-0.1c0.2-0.1,0.4-0.2,0.6-0.3c0.6-0.3,1.3-0.7,2.4-0.7
		c3,0.1,5.8-0.9,9.1-2.4c0.1-0.1,0.3-0.1,0.4-0.1c0.1,0,0.3-0.1,0.4-0.1c1-0.3,2-0.6,2.7-1.1c0.1-0.1,0.2-0.1,0.3-0.2
		c0.1-0.1,0.2-0.1,0.4-0.2l0.3-0.1c1.2-0.4,2.2-0.7,2.9-1.4c0.1-0.2,0.2-0.3,0.4-0.4c0.2-0.1,0.4-0.2,0.6-0.2
		c0.1-0.1,0.2-0.2,0.3-0.2c0.2-0.1,0.5-0.2,0.7-0.2c0.1,0,0.2,0,0.3,0c0.1-0.1,0.3-0.2,0.5-0.3c0.3-0.1,0.6-0.1,1,0
		c0.2,0,0.5-0.1,1-0.2c0.3-0.1,0.6-0.2,1-0.2c0.4-0.1,0.8,0,1.1,0.3c0.3,0.3,0.5,0.6,0.5,1v2.4c0,50.4,0,90.2,0,140.5
		C570.2,72.9,569.6,73.5,568.8,73.5z M369.4-17.4c0.6,0,1.2,0.2,1.8,0.4c0.2,0.1,0.4,0.1,0.6-0.1c1-0.6,2.1-0.8,3.2-0.8
		c0-0.2,0.1-0.4,0.1-0.6c0,0,0-0.1,0-0.1c-0.3-0.1-0.6-0.1-0.8-0.2c-0.5-0.1-0.9-0.2-1.2-0.2c-0.2,0.2-0.4,0.3-0.6,0.4
		c-0.2,0.1-0.4,0.1-0.6,0.1C371-17.9,370.2-17.6,369.4-17.4z M474.3-23.5L474.3-23.5L474.3-23.5z"/>
</g>
<g id="HHC-noohio">
	<g>
		<path class="st2" d="M219.2,182v-22.6h3.8v9.8h11.2v-9.8h3.8V182h-3.8v-9.3H223v9.3H219.2z"/>
		<path class="st2" d="M263.3,178.9c-2.3,2.2-5.1,3.4-8.5,3.4c-3.4,0-6.2-1.1-8.5-3.4c-2.3-2.2-3.4-5-3.4-8.4s1.1-6.1,3.4-8.4
			c2.3-2.2,5.1-3.4,8.5-3.4c3.4,0,6.2,1.1,8.5,3.4c2.3,2.2,3.4,5,3.4,8.4S265.6,176.7,263.3,178.9z M260.5,164.7
			c-1.5-1.6-3.4-2.4-5.7-2.4c-2.2,0-4.1,0.8-5.7,2.4c-1.5,1.6-2.3,3.5-2.3,5.8c0,2.3,0.8,4.2,2.3,5.8c1.5,1.6,3.4,2.4,5.7,2.4
			c2.2,0,4.1-0.8,5.7-2.4c1.5-1.6,2.3-3.5,2.3-5.8C262.9,168.3,262.1,166.3,260.5,164.7z"/>
		<path class="st2" d="M275.4,182h-3.8v-22.6h6l6.8,14.2l6.8-14.2h5.9V182h-3.8v-17.7l-7.9,15.7h-2.1l-7.9-15.7V182z"/>
		<path class="st2" d="M319.4,159.4v3.6h-12.1v6h10.9v3.4h-10.9v6.1h12.5v3.6h-16.3v-22.6H319.4z"/>
		<path class="st2" d="M335,178.5c1.3,0,2.5-0.2,3.4-0.7c1-0.4,1.9-1.2,3-2.1l2.5,2.5c-2.4,2.7-5.3,4-8.7,4c-3.4,0-6.3-1.1-8.5-3.3
			c-2.3-2.2-3.4-5-3.4-8.4c0-3.4,1.2-6.2,3.5-8.4c2.3-2.2,5.2-3.4,8.7-3.4c3.5,0,6.4,1.3,8.8,3.9l-2.4,2.7c-1.1-1-2.1-1.8-3.1-2.2
			c-1-0.4-2.1-0.6-3.4-0.6c-2.3,0-4.2,0.7-5.8,2.2s-2.3,3.4-2.3,5.7c0,2.3,0.8,4.2,2.3,5.8C331,177.8,332.9,178.5,335,178.5z"/>
		<path class="st2" d="M351.7,176.9l-2.3,5.2h-4.1l10-22.6h4.1l10,22.6h-4.1l-2.3-5.2H351.7z M361.5,173.3l-4.1-9.3l-4.1,9.3H361.5z
			"/>
		<path class="st2" d="M390.6,166.7c0,3.7-1.6,6.1-4.9,7.1l5.9,8.2h-4.9l-5.4-7.6h-5v7.6h-3.8v-22.6h8.4c3.5,0,5.9,0.6,7.4,1.7
			C389.9,162.3,390.6,164.2,390.6,166.7z M385.5,169.9c0.8-0.7,1.2-1.7,1.2-3.2s-0.4-2.5-1.2-3c-0.8-0.6-2.2-0.8-4.3-0.8h-4.9v8.1
			h4.8C383.3,170.9,384.7,170.6,385.5,169.9z"/>
		<path class="st2" d="M412,159.4v3.6h-12.1v6h10.9v3.4h-10.9v6.1h12.5v3.6h-16.3v-22.6H412z"/>
		<path class="st2" d="M441.5,161.3c1.6,1.3,2.4,3.3,2.4,6.1s-0.8,4.8-2.4,6c-1.6,1.3-4.1,1.9-7.4,1.9h-4v6.6h-3.8v-22.6h7.8
			C437.4,159.4,439.9,160,441.5,161.3z M438.8,170.7c0.8-0.8,1.2-2,1.2-3.6c0-1.6-0.5-2.7-1.5-3.3c-1-0.6-2.5-1-4.6-1H430v9.1h4.4
			C436.6,171.9,438,171.5,438.8,170.7z"/>
		<path class="st2" d="M448.3,182v-22.6h3.8v9.8h11.2v-9.8h3.8V182h-3.8v-9.3h-11.2v9.3H448.3z"/>
		<path class="st2" d="M476.7,176.9l-2.3,5.2h-4.1l10-22.6h4.1l10,22.6h-4.1l-2.3-5.2H476.7z M486.5,173.3l-4.1-9.3l-4.1,9.3H486.5z
			"/>
		<path class="st2" d="M515.6,166.7c0,3.7-1.6,6.1-4.9,7.1l5.9,8.2h-4.9l-5.4-7.6h-5v7.6h-3.8v-22.6h8.4c3.5,0,5.9,0.6,7.4,1.7
			C514.9,162.3,515.6,164.2,515.6,166.7z M510.5,169.9c0.8-0.7,1.2-1.7,1.2-3.2s-0.4-2.5-1.2-3c-0.8-0.6-2.2-0.8-4.3-0.8h-4.9v8.1
			h4.8C508.3,170.9,509.8,170.6,510.5,169.9z"/>
		<path class="st2" d="M525,182h-3.8v-22.6h6l6.8,14.2l6.8-14.2h5.9V182h-3.8v-17.7L535,180h-2.1l-7.9-15.7V182z"/>
		<path class="st2" d="M556.2,176.9l-2.3,5.2h-4.1l10-22.6h4.1l10,22.6h-4.1l-2.3-5.2H556.2z M566,173.3l-4.1-9.3l-4.1,9.3H566z"/>
		<path class="st2" d="M587.4,178.5c1.3,0,2.5-0.2,3.4-0.7c1-0.4,1.9-1.2,3-2.1l2.5,2.5c-2.4,2.7-5.3,4-8.7,4
			c-3.4,0-6.3-1.1-8.5-3.3s-3.4-5-3.4-8.4c0-3.4,1.2-6.2,3.5-8.4c2.3-2.2,5.2-3.4,8.7-3.4s6.4,1.3,8.8,3.9l-2.4,2.7
			c-1.1-1-2.1-1.8-3.1-2.2c-1-0.4-2.1-0.6-3.4-0.6c-2.3,0-4.2,0.7-5.8,2.2c-1.6,1.5-2.3,3.4-2.3,5.7c0,2.3,0.8,4.2,2.3,5.8
			C583.4,177.8,585.2,178.5,587.4,178.5z"/>
		<path class="st2" d="M609.8,182h-3.9v-8.9l-8.4-13.7h4.2l6.2,10.3l6.2-10.3h4.2l-8.4,13.7V182z"/>
	</g>
	<g>
		<path class="st3" d="M193,181.2c0-10.6,3.2-24.4,7.5-41.4l19-76.1H199l-14,55.8h-31.2l5.4-21.6c8-32.3,3.4-45.7-18.1-45.7
			c-8,0-17.7,1.9-28.2,3.7c-20.3,3.9-44,8.2-64.9,1.7c-2.4,1.1-3.7,3.5-3.7,6c0,5.8,7.1,13.1,22,13.1c12.5,0,27.2-5,40.7-9.5
			c11.2-3.5,21.5-6.7,28.4-6.7c11,0,10.8,8.2,5.6,29.3l-24.3,96.8h20.3l14.6-57.8h31.2l-2.2,9.1c-3.2,13.2-8.4,33-8.4,48.5
			c0,13.4,3.7,23.5,16,23.5c7.1,0,11.4-3.4,12.7-8.4C195.7,196.9,193,191.1,193,181.2z"/>
		<path class="st3" d="M487.3,86.5c-9.6,0-17.3,5.2-17.3,13.6c0,6.6,4.2,10.1,8.3,13.4c4.1,3.3,7.7,6.3,7.7,11.7
			c0,5-3.2,11.2-10.6,11.2c-6.3,0-9.1-4.5-9.1-9.2c0-3.6,1.7-7.2,4.8-8.8c0.7-3.7-1.1-6.8-4.8-6.8c-5.3,0-9,6.6-9,13.6
			c0,0.1,0,0.2,0,0.4c-5.6,6.5-13.2,10-19.2,10c-6.9,0-10.9-4.7-11.8-11.5c18-3.2,30.8-15.3,30.8-25.7c0-5.6-3.9-11.2-13.5-11.2
			c-17.8,0-30.3,19.9-30.3,35.2c0,0.1,0,0.1,0,0.2c-3.5,7.8-8,11.8-11.8,11.8c-2.6,0-3.8-1.8-3.8-4.8c0-3.4,1.6-8.1,3.3-13
			c2-5.8,4.1-12,4.1-17.4c0-6.6-3.4-12-11.7-12c-5.8,0-13.6,2.7-20.3,11.7l10.6-42.4h-12.5l-13.9,55.7l0,0.1
			c-3.8,15.3-16.8,23.6-26.1,23.6c-7.6,0-11.8-5.8-11.8-14.2c0-12.2,8.7-29.1,16.7-29.1c2.6,0,4.2,1.8,4.2,4.7
			c0,1.8-0.6,4.5-1.8,7.4c0.7,1.1,2.3,1.6,3.7,1.6c4.2,0,7-4.2,7-8.3c0-5.3-4.1-10.7-13.1-10.7c-16.8,0-29.2,19.2-29.6,34.4
			c-4.6,8.8-11.2,12.7-15.2,12.7c-2.8,0-5-1.8-5-6.3c0-2.7,0.9-6.5,2-11.2l7.7-31.3c3.6,0.5,6.8,0.9,9.7,0.9c4.1,0,6.3-0.7,6.6-2.7
			c0.1-0.6-0.1-1.5-0.7-2.5c-1.8,0.1-3.6,0.2-5.3,0.2c-2.8,0-5.9-0.2-9.1-0.6l3.8-15.6l-12.9,1.5l-2.9,11.9
			c-3.8-0.7-7.6-1.6-11.4-2.5c-10.6-2.5-20.7-4.8-28.5-4.8c-6.9,0-11.3,2-11.8,5.2c-0.2,1-0.2,2.8,1.5,4.7
			c9.1-1.6,21.2-0.5,31.9,0.7c6.1,0.2,11.8,1,17.1,1.7l-7.1,28.5c0,0,0,0.1,0,0.1c-3.6,14.5-9.7,22-14.5,22c-2,0-3.9-1.1-3.9-4.9
			c0-2.8,1-7.2,2.3-12.5l6.9-27.3h-12.5l-3.6,14.4c-4.5,18.2-10.9,30-19.3,30c-4.1,0-5.5-3.2-5.5-6.8c0-2.8,0.9-6.9,1.6-9.7
			l6.9-27.9h-12.5l-5.6,22.6c-1.5,6-3.1,12.6-3.1,17.9c0,7.2,2.9,12.5,11.7,12.5c6.3,0,13.5-2.7,20-12.8
			c-0.6,7.5,2.6,12.8,10.6,12.8c7.8,0,13.5-5.1,17.6-11.8c0.1,7.3,3.6,11.8,11.4,11.8c9.3,0,16.9-6.2,22.1-14.1
			c2.1,8.6,8.9,14.6,19.9,14.6c10.1,0,19.4-5,25.8-13l-2.6,10.5h12.5l5.8-22.8c2.9-11.5,9.3-22.2,18.2-22.2c4.5,0,5.3,2.9,5.3,5.5
			c0,3.8-1.7,8.8-3.3,14.1c-2,5.9-4.1,12.3-4.1,17.6c0,5.4,2.2,9.8,10.1,9.8c9.1,0,15.4-5.7,19.7-13.1c2.4,7.7,9.1,13.1,19.6,13.1
			c9.3,0,18-4.2,24.3-11.1c2,6,7.2,11.1,16.9,11.1c11.4,0,22.7-7.1,22.7-18.3c0-8.3-6.1-13.1-11.5-17.2c-4.1-3.1-7.5-6-7.5-9.7
			c0-3.2,2.7-6.5,7.7-6.5c4.5,0,6.8,2.8,6.8,6c0,1.2-0.4,2.6-1,3.7c1.1,1.5,2.7,2.3,4.4,2.3c2.9,0,4.8-2.6,4.8-5.8
			C501.8,92.4,497.4,86.5,487.3,86.5z M443.5,92.5c3.6,0,4.2,3.6,4.2,5.6c0,7.9-8.3,18-21.1,20.7C427.6,107.1,436,92.5,443.5,92.5z"
			/>
		<path class="st3" d="M621,111.2c-0.6,0-1.4,0.2-2.2,0.6c-2.5,14.7-8.6,22.6-14.4,22.6c-2.6,0-3.8-1.8-3.8-4.8
			c0-3.4,1.6-8.1,3.3-13c2-5.8,4.1-12,4.1-17.4c0-6.6-3.4-12-11.7-12c-5.8,0-13.6,2.7-20.1,11.5l2.2-9.1h-12.5l-5.6,22.6l0,0
			c-2,7.7-7.7,12.2-12.6,12.2c-0.7,0-1.4-0.1-1.8-0.2c2.8-5.9,4.3-12.3,4.3-18.2c0-10.7-5-18.9-15.8-18.9
			c-18.5,0-30.7,20.6-30.7,36.6c0,10.4,5,18.9,17.2,18.9c9,0,16.5-5.3,21.6-12.5c1,0.2,2.1,0.4,3.3,0.4c4.5,0,8.2-1.5,11.1-4.1
			l-3.5,14.3h12.5l5.6-22.8c2.9-11.7,9.3-22.2,18.2-22.2c4.5,0,5.3,2.9,5.3,5.5c0,3.8-1.7,8.8-3.3,14.1c-2,5.9-4.1,12.3-4.1,17.6
			c0,5.4,2.2,9.8,10.1,9.8c16.1,0,25.8-20,25.8-27.9C623.3,112.4,622.5,111.2,621,111.2z M542.4,105.4c-3.8,1.6-7.1,8.3-7.1,14.5
			c0,2.1,0.4,4.1,1.2,5.8c-3.3,5.6-7.6,9.7-12.4,9.7c-5.5,0-7.9-5-7.9-11.7c0-12.3,8-30.4,18.3-30.4c5.5,0,7.9,4.9,7.9,11.4V105.4z"
			/>
	</g>
</g>
</svg>
