<?xml version="1.0" encoding="utf-8"?>
<!-- Generator: Adobe Illustrator 22.0.1, SVG Export Plug-In . SVG Version: 6.00 Build 0)  -->
<svg version="1.1" id="Layer_1" xmlns="http://www.w3.org/2000/svg" xmlns:xlink="http://www.w3.org/1999/xlink" x="0px" y="0px"
	 viewBox="0 0 188.3 94" style="enable-background:new 0 0 188.3 94;" xml:space="preserve">
<style type="text/css">
	.st0{fill:#231F20;}
</style>
<g id="New_Symbol">
	<path class="st0" d="M103.3,32.3l-2.9,2.9l-0.1,0.1c-0.5,0.5-1.3,0.4-1.8-0.1c-0.5-0.5-0.4-1.3,0.1-1.8l2.7-2.7l4.6-4.6l0,0
		l0.8-0.8c0.9-0.9,1-2.2,0.3-3.2L94.7,34.4v9.2l11.6-11.6C105.3,31.6,104.1,31.7,103.3,32.3z"/>
	<path class="st0" d="M103.2,21.6L103.2,21.6l-2.8,2.8l0,0c-0.5,0.5-1.3,0.5-1.8,0c-0.4-0.4-0.5-1.1-0.1-1.6c0-0.1,0.1-0.1,0.1-0.2
		l2.5-2.5l2.2-2.3c0.7-0.9,0.7-2,0.1-2.9l-8.8,8.8v9.3l11.6-11.6C105.3,20.7,104,20.8,103.2,21.6z"/>
	<path class="st0" d="M99.8,14.2l-1,1c-0.1,0.1-0.1,0.1-0.2,0.2c-0.6,0.4-1.4,0.2-1.8-0.4c-0.1-0.2-0.2-0.4-0.2-0.7V9.6
		c0-0.7-0.3-1.3-0.7-1.8c-0.3-0.3-0.8-0.6-1.2-0.7v15l8-8C101.8,13.5,100.7,13.6,99.8,14.2z"/>
	<path class="st0" d="M94.7,45.2v6.6h1.2v-4.9c0.2-0.1,0.3-0.2,0.5-0.4l5-5l5.4-5.4c0.9-0.9,1-2.2,0.3-3.3L94.7,45.2z"/>
	<path class="st0" d="M81.5,25.3l0.9,0.9l4.5,4.5l2.8,2.8c0.5,0.5,0.4,1.4-0.2,1.8c-0.5,0.4-1.1,0.4-1.6,0l0,0l-2.7-2.7l-0.1,0l0,0
		c-0.9-0.8-2.2-0.9-3.1-0.3l11.6,11.6v-9.3L81.2,22.1C80.5,23.1,80.7,24.4,81.5,25.3z"/>
	<path class="st0" d="M84.8,17.7l2.3,2.3l2.5,2.5c0.1,0.1,0.2,0.2,0.3,0.3c0.3,0.6,0.1,1.4-0.5,1.7c-0.5,0.3-1.1,0.2-1.5-0.2l0,0
		l-2.7-2.7l-0.1,0c-0.9-0.8-2.2-0.9-3.1-0.3L93.6,33v-9.3l-8.8-8.8C84.2,15.7,84.2,16.9,84.8,17.7z"/>
	<path class="st0" d="M91.5,9.6V14c0.1,0.2,0.1,0.4,0,0.6c-0.2,0.7-0.9,1.1-1.5,0.9c-0.2-0.1-0.4-0.2-0.6-0.3l0,0l-0.7-0.7
		c-0.8-0.9-2.2-1-3.2-0.3l8.1,8.1V7.1C92.4,7.4,91.5,8.4,91.5,9.6z"/>
	<path class="st0" d="M81.5,36.1l5.3,5.4l5.1,5.1c0.1,0.1,0.3,0.3,0.5,0.4v4.9h1.2v-4.2l0,0v-2.2L81.2,32.9
		C80.5,33.9,80.7,35.3,81.5,36.1z"/>
</g>
<path class="st0" d="M42.4,85.2c-0.2,0.5-0.4,1-0.6,1.5c-0.6,0.2-1.3,0.2-2,0.3c-2.5,0-3.7-1.7-3.7-3.2c0-2,1.7-3.4,4.1-3.4
	c0.6,0,1.3,0.1,1.9,0.3c0.1,0.6,0.1,0.9,0.2,1.4l-0.3,0.1c-0.2-0.9-1.1-1.5-2-1.4c-1.5-0.1-2.7,1.1-2.8,2.5c0,0.1,0,0.2,0,0.3
	c-0.1,1.5,1.1,2.9,2.6,3c0,0,0.1,0,0.1,0c1,0,1.8-0.6,2.2-1.5L42.4,85.2z"/>
<path class="st0" d="M46.9,80.4c1.8-0.1,3.3,1.3,3.4,3.1c0,0,0,0,0,0.1c0,1.8-1.4,3.3-3.3,3.3c-0.1,0-0.2,0-0.3,0
	c-1.8,0.1-3.3-1.3-3.4-3.1c0,0,0,0,0-0.1C43.4,81.8,44.9,80.4,46.9,80.4C46.8,80.4,46.9,80.4,46.9,80.4L46.9,80.4z M46.7,80.8
	c-1.2,0-2.3,0.8-2.3,2.7c0,1.8,1.1,3.1,2.6,3.1c1.2,0,2.3-0.8,2.3-2.7C49.3,81.8,48.1,80.7,46.7,80.8L46.7,80.8L46.7,80.8z"/>
<path class="st0" d="M57.3,86.8v-0.3c0.8-0.1,0.9-0.1,0.9-1.2l-0.1-3.9l0,0l-2.6,5.3h-0.2l-2.4-5.1l0,0l-0.2,2.7
	c-0.1,0.8-0.1,1.2-0.1,1.6c0,0.4,0.3,0.5,1,0.6v0.3h-2.5v-0.3c0.6-0.1,0.8-0.1,0.9-0.6c0.1-0.6,0.2-1.1,0.2-1.7l0.1-2
	c0.1-1.2,0.1-1.2-0.9-1.3v-0.3h1.7l2.4,4.8l2.5-4.8h1.8v0.3c-1,0.1-1,0.1-1,1.1l0.1,3.3c0,1.1,0.1,1.1,1,1.2v0.3L57.3,86.8
	L57.3,86.8z"/>
<path class="st0" d="M67,86.8v-0.3c0.8-0.1,0.9-0.1,0.9-1.2l-0.1-3.9l0,0l-2.6,5.3H65l-2.4-5.1l0,0l-0.2,2.7
	c-0.1,0.8-0.1,1.2-0.1,1.6s0.3,0.5,1,0.6v0.3h-2.5v-0.3c0.6-0.1,0.8-0.1,0.9-0.6c0.1-0.6,0.2-1.1,0.2-1.7l0.1-2
	c0.1-1.2,0.1-1.2-0.9-1.3v-0.3h1.7l2.4,4.8l2.5-4.8h1.8v0.3c-1,0.1-1,0.1-1,1.1l0.1,3.3c0,1.1,0.1,1.1,1,1.2v0.3L67,86.8L67,86.8z"
	/>
<path class="st0" d="M78,80.8c-0.6,0-0.9,0.1-1,0.5c-0.1,0.5-0.1,1.1-0.1,1.6v0.7c0.1,0.9-0.2,1.9-0.8,2.5c-0.5,0.5-1.2,0.7-1.9,0.7
	c-0.6,0-1.2-0.1-1.7-0.5c-0.7-0.6-1-1.4-0.9-2.3v-2.4c0-0.8-0.1-0.8-1-0.9v-0.3h2.7v0.3c-0.8,0.1-0.9,0.1-0.9,0.9V84
	c0,1.7,0.8,2.4,2,2.4c1.5,0,2-1.1,2-2.8V83c0-0.5,0-1.1-0.1-1.6c-0.1-0.4-0.3-0.5-1.1-0.5v-0.3h2.6L78,80.8L78,80.8z"/>
<path class="st0" d="M86.1,80.8c-0.6,0-0.8,0.1-1,0.5c-0.1,0.4,0,0.7,0,1.6v3.8h-0.3l-4.5-5l0,0v2.4c0,0.8,0,1.3,0,1.6
	c0.1,0.5,0.3,0.6,1,0.6v0.3h-2.5v-0.3c0.6,0,0.8-0.1,1-0.6c0.1-0.5,0.1-1.1,0.1-1.6v-2.1c0.1-0.3,0-0.7-0.2-0.9
	c-0.3-0.2-0.6-0.4-1-0.3v-0.3h1.5l4.4,4.9l0,0V83c0-0.5,0-1.1-0.1-1.6c-0.1-0.4-0.3-0.6-1.1-0.6v-0.3H86L86.1,80.8L86.1,80.8z"/>
<path class="st0" d="M86.9,86.8v-0.3c0.8-0.1,1-0.1,1-0.9v-3.8c0-0.8-0.1-0.8-1-0.9v-0.3h2.8v0.3c-0.8,0.1-1,0.1-1,0.9v3.8
	c0,0.8,0.1,0.8,1,0.9v0.3L86.9,86.8L86.9,86.8z"/>
<path class="st0" d="M96.2,82c0-0.3-0.1-0.6-0.3-0.8c-0.2-0.2-0.3-0.3-1.1-0.3H94v4.7c0,0.8,0.1,0.8,1.1,0.9v0.3h-3v-0.3
	c1-0.1,1.1-0.1,1.1-0.9v-4.7h-0.8c-0.8,0-1,0.1-1.2,0.3C91.1,81.4,91,81.7,91,82h-0.3c0-0.6,0.1-1.2,0.1-1.7H91
	c0.1,0.2,0.4,0.3,0.6,0.3h4.2c0.2,0,0.4-0.1,0.5-0.2h0.2c0,0.4,0.1,1.1,0.1,1.7L96.2,82z"/>
<path class="st0" d="M104,80.8c-0.6,0-1.1,0.3-1.3,0.8c-0.5,0.7-0.8,1.2-1.3,2.1c-0.1,0.2-0.2,0.3-0.2,0.5v1.3
	c0,0.8,0.1,0.8,1.1,0.9v0.3h-3v-0.3c1-0.1,1-0.1,1-0.9v-1.3c0-0.2-0.1-0.4-0.3-0.6c-0.4-0.7-0.8-1.3-1.3-2.1
	c-0.2-0.5-0.7-0.8-1.2-0.8v-0.3h2.5v0.3c-0.8,0.1-0.7,0.2-0.5,0.5c0.4,0.7,1,1.5,1.5,2.2c0.4-0.7,1-1.5,1.2-2.1
	c0.3-0.6,0.2-0.5-0.6-0.6v-0.3h2.4L104,80.8L104,80.8z"/>
<path class="st0" d="M113.7,85.2c-0.2,0.5-0.4,1-0.6,1.5c-0.6,0.2-1.3,0.2-2,0.3c-2.5,0-3.7-1.7-3.7-3.2c0-2,1.7-3.4,4.1-3.4
	c0.6,0,1.3,0.1,1.9,0.3c0.1,0.6,0.1,0.9,0.2,1.4l-0.3,0.1c-0.2-1-1.1-1.6-2.1-1.4c-1.5-0.1-2.7,1.1-2.8,2.5c0,0.1,0,0.2,0,0.2
	c-0.1,1.5,1.1,2.9,2.6,3c0.1,0,0.2,0,0.2,0c1,0,1.8-0.6,2.2-1.5L113.7,85.2z"/>
<path class="st0" d="M121.9,80.8c-0.8,0.1-1,0.1-1,0.8v3.9c0,0.8,0.1,0.8,1,0.8v0.3H119v-0.3c0.9-0.1,1-0.1,1-0.8v-1.9h-3.7v1.9
	c0,0.8,0.1,0.8,1,0.8v0.3h-2.8v-0.3c0.8-0.1,1-0.1,1-0.8v-3.9c0-0.8-0.1-0.8-1-0.8v-0.3h2.7v0.3c-0.8,0.1-0.9,0.1-0.9,0.8v1.5h3.7
	v-1.5c0-0.8-0.1-0.8-0.9-0.8v-0.3h2.7L121.9,80.8L121.9,80.8z"/>
<path class="st0" d="M130.1,80.8c-0.6,0-0.9,0.1-1,0.5c-0.1,0.5-0.1,1.1-0.1,1.6v0.7c0.1,0.9-0.2,1.9-0.8,2.5
	c-0.5,0.5-1.2,0.7-1.9,0.7c-0.6,0-1.2-0.1-1.7-0.5c-0.7-0.6-1-1.4-0.9-2.3v-2.4c0-0.8-0.1-0.8-1-0.9v-0.3h2.8v0.3
	c-0.8,0.1-0.9,0.1-0.9,0.9V84c0,1.7,0.8,2.4,2,2.4c1.5,0,2-1.1,2-2.8V83c0-0.5,0-1.1-0.1-1.6c-0.1-0.4-0.3-0.5-1.1-0.5v-0.3h2.6
	L130.1,80.8L130.1,80.8z"/>
<path class="st0" d="M137.2,86.8c-0.1,0-0.3,0-0.4,0c-0.6,0-1.3-0.3-1.6-0.8c-0.4-0.5-0.8-1.1-1.1-1.5c-0.2-0.3-0.6-0.5-0.9-0.4
	h-0.4v1.5c0,0.8,0.1,0.8,1,0.9v0.3H131v-0.3c0.9-0.1,1-0.1,1-0.9v-3.8c0-0.8-0.1-0.8-0.9-0.9v-0.3h2.6c0.6,0,1.1,0.1,1.6,0.3
	c0.5,0.2,0.7,0.7,0.7,1.2c0,0.8-0.6,1.5-1.3,1.7c0.2,0.3,0.6,1,1,1.4c0.3,0.3,0.5,0.7,0.8,1c0.2,0.2,0.5,0.4,0.8,0.4L137.2,86.8z
	 M133.3,83.7c0.4,0,0.8-0.1,1.2-0.3c0.4-0.3,0.6-0.7,0.6-1.2c0-0.8-0.6-1.4-1.4-1.4c-0.1,0-0.2,0-0.2,0c-0.2,0-0.4,0-0.6,0.1
	c-0.1,0.1-0.2,0.3-0.1,0.4v2.3L133.3,83.7L133.3,83.7z"/>
<path class="st0" d="M144.1,85.2c-0.2,0.5-0.4,1-0.6,1.5c-0.6,0.2-1.3,0.2-2,0.3c-2.5,0-3.7-1.7-3.7-3.2c0-2,1.7-3.4,4.1-3.4
	c0.6,0,1.3,0.1,1.9,0.3c0.1,0.6,0.1,0.9,0.2,1.4l-0.3,0.1c-0.2-0.9-1.1-1.6-2-1.4c-1.5-0.1-2.7,1.1-2.8,2.5c0,0.1,0,0.2,0,0.2
	c-0.1,1.5,1,2.9,2.6,3c0.1,0,0.2,0,0.2,0c1,0,1.8-0.6,2.2-1.5L144.1,85.2z"/>
<path class="st0" d="M152.2,80.8c-0.8,0.1-1,0.1-1,0.8v3.9c0,0.8,0.1,0.8,1,0.8v0.3h-2.8v-0.3c0.9-0.1,1-0.1,1-0.8v-1.9h-3.7v1.9
	c0,0.8,0.1,0.8,1,0.8v0.3H145v-0.3c0.8-0.1,1-0.1,1-0.8v-3.9c0-0.8-0.1-0.8-1-0.8v-0.3h2.7v0.3c-0.8,0.1-0.9,0.1-0.9,0.8v1.5h3.7
	v-1.5c0-0.8-0.1-0.8-0.9-0.8v-0.3h2.7L152.2,80.8L152.2,80.8z"/>
<path class="st0" d="M42.7,63.2v13.2H39V63.2h-4.6V60h13v3.2C47.3,63.2,42.7,63.2,42.7,63.2z"/>
<path class="st0" d="M60.2,60h3.6v16.4h-3.6v-6.5h-6.5v6.5H50V60h3.7v6.9h6.5V60z"/>
<path class="st0" d="M79.7,60v3.3h-8.2v3.4h7.3v3.1h-7.3v3.4H80v3.2H67.9V60H79.7z"/>
<path class="st0" d="M103.2,74.1c-3.4,3.2-8.8,3.2-12.3,0c-3.3-3.3-3.3-8.7,0-12.1c3.4-3.2,8.8-3.2,12.3,0
	C106.6,65.4,106.6,70.8,103.2,74.1z M102,68.1c0-1.4-0.5-2.7-1.4-3.7c-1.7-1.9-4.6-2.1-6.6-0.4c-0.1,0.1-0.3,0.2-0.4,0.4
	c-1.9,2.1-1.9,5.3,0,7.5c1.7,1.9,4.7,2.1,6.6,0.3c0.1-0.1,0.2-0.2,0.3-0.3C101.5,70.8,102,69.5,102,68.1z"/>
<path class="st0" d="M120,76.4l-1.5-3.5h-6.9l-1.5,3.5h-3.9l7.1-16.4h3.5l7.1,16.4H120L120,76.4z M115.1,64.9l-2.1,4.8h4.1
	L115.1,64.9z"/>
<path class="st0" d="M125.8,60h3.7v6.7l6.2-6.7h4.5l-6.5,7.3l3.1,4.4l3.4,4.8H136l-4.8-6.5l-1.6,1.8v4.7h-3.7L125.8,60L125.8,60z"/>
<path class="st0" d="M145.9,63.3c-0.3,0.3-0.5,0.7-0.5,1.2c0,0.5,0.2,0.9,0.6,1.1c0.9,0.5,1.9,0.8,3,1c1.3,0.3,2.6,0.8,3.6,1.7
	c0.9,0.9,1.4,2.1,1.3,3.4c0,1.4-0.6,2.7-1.7,3.6c-1.2,1-2.8,1.4-4.4,1.4c-2.6,0-5.1-1-7-2.9L143,71c1.8,1.6,3.4,2.3,4.9,2.3
	c0.6,0,1.1-0.1,1.6-0.4c0.4-0.3,0.6-0.7,0.6-1.2c0-0.5-0.2-0.9-0.6-1.2c-0.8-0.4-1.6-0.7-2.4-0.8c-1.5-0.3-2.9-0.9-4.2-1.8
	c-0.9-0.9-1.4-2.1-1.3-3.4c-0.1-1.4,0.6-2.8,1.7-3.6c1.2-0.9,2.7-1.3,4.2-1.3c1.1,0,2.2,0.2,3.3,0.6c1,0.3,2,0.9,2.9,1.6l-1.8,2.6
	c-1.2-1-2.8-1.6-4.4-1.6C146.8,62.8,146.3,62.9,145.9,63.3z"/>
</svg>
