<?xml version="1.0" encoding="utf-8"?>
<!-- Generator: Adobe Illustrator 22.0.1, SVG Export Plug-In . SVG Version: 6.00 Build 0)  -->
<svg version="1.1" id="Layer_1" xmlns="http://www.w3.org/2000/svg" xmlns:xlink="http://www.w3.org/1999/xlink" x="0px" y="0px"
	 viewBox="0 0 645 312" style="enable-background:new 0 0 645 312;" xml:space="preserve">
<style type="text/css">
	.st0{font-family:'MyriadPro-SemiboldIt';}
	.st1{font-size:30.9931px;}
</style>
<g>
	<path d="M601.7,50.6L321.9,20.9C319.3,21.2,44.2,54,41.5,54.4v1.7c0,30.2,0,167.2,0,199c2.6,0.5,276.4,35.6,279.1,36l282.8-32.3
		V50.9L601.7,50.6z M599.6,255.8l-278.7,31.3L45.4,251.7V57.9l276.5-33l277.6,29.5V255.8z"/>
	<g>
		<path d="M104,127.8c-16.1-15.4-5-41.9,16.7-41.9c14.2,0,24.6,11.8,24.6,25.2C145.3,133,119.5,142.6,104,127.8z M138.7,112.3
			c0-29.8-36.1-29.9-36.1-4.3C102.6,138.4,138.7,137.7,138.7,112.3z"/>
		<path d="M182.7,90.4c0,3.6-6.9-0.6-6.9,3.4c0,34.6-1.1,35.5,1.7,35.5c12.7,0,14.7,0.9,16.4-1.8c0.9-1.3,2.4-6.1,3.8-6.1
			c0.4,0,2,0.2,2,1.5c0,0.3-0.9,6.2-1.3,9.3c-0.1,0.7-0.3,1.5-1.8,1.5c0,0-12.5-0.4-31-0.4c-0.9,0-1.1-0.5-1.1-1
			c0-1.3,0.8-1.3,3.6-1.9c1.4-0.4,1.5-1,1.5-2.3c0-40.9,1.4-36.1-3.7-36.2c-2.4-0.2-2-3.2-0.4-3.2c0,0,8,0.2,8,0.2
			C182.2,88.8,182.7,87.7,182.7,90.4z"/>
		<path d="M220.3,88.8c15.6,0,23.7-0.5,31.1,2.9c21.6,10,13.8,41.6-12.5,41.6c-18.5,0-20.2,1.2-20.2-1.8c0-1.6,1.4-1.4,4.9-1.6
			c1.5-0.1,1.8-0.9,1.8-2.4c0-39.6,1.9-35.5-5.4-35.8C218.5,91.7,218.3,88.8,220.3,88.8z M235.7,91.6c-3.8,0-4.4,0.4-4.4,2
			c0,37.4-2.7,36.5,6.6,36.5C265,130.1,263.5,91.6,235.7,91.6z"/>
		<path d="M304.4,131.9c0-1.5,0.8-1.3,4.5-1.5c1.6-0.1,1.7-1,1.7-2.1c0-40.2,1.3-36.5-3.4-37.1c-1.2-0.2-2.9,0.1-2.9-1.4
			c0-2.7,2.6-1.6,9.4-1.6c7.8,0,9.2-1.2,9.2,1.8c0,1.3-1,1.1-5,1.4c-1.3,0.1-1.5,0.8-1.5,2v10.9c0,0.5,0.1,0.9,0.9,0.9h22.3
			c1.1,0,1.1-0.7,1.1-1.2v-9.7c0-1.1-0.1-2.4-1.4-2.8c-1.7-0.7-4.7,0.3-4.7-1.8c0-1,0.5-1.6,1.6-1.6c0.7,0,2.7,0.1,6.8,0.1
			c4.7,0,8.4-0.3,8.6-0.3c0.8,0,1.3,0.5,1.3,1.3c0,1.9-1.5,1.7-4.5,2.2c-1.6,0.2-1.8,1.1-1.8,1.9c0,35.8-1.2,36.8,1.8,37
			c2.5,0.2,4.1-0.1,4.1,1.7c0,2.7-1.4,1.3-9.4,1.3c-4.3,0-7.7,0.4-8,0.4c-0.9,0-1.1-0.7-1.1-1.3c0-4.4,6.7,0.8,6.7-4.5V110
			c0-0.6-0.3-0.7-0.9-0.7h-22.5c-0.9,0-1,0.5-1,1.1c0,19.9-1.3,19.6,3.2,20c1,0.1,3.2-0.1,3.2,1.4c0,2.9-0.6,1.4-9,1.4
			C305.5,133.3,304.4,134.7,304.4,131.9z"/>
		<path d="M382.1,88.8c4.2,0,6.2-0.3,6.9-0.3c0.5,0,1.1,0.2,1.1,1.3c0,2-0.8,1.8-4.2,2.1c-0.9,0.1-1.1,0.6-1.1,1.1v35.6
			c0,0.7,0,1.5,1.2,1.6c3.7,0.3,5.2-0.1,5.2,1.5c0,3-1.3,1.5-9.7,1.5c-8.8,0-9.6,1.6-9.6-1.7c0-1.4,0.9-1.1,5.5-1.5
			c1.2-0.1,1.4-0.7,1.4-1.8c0-37.1,0.1-35.2,0.1-35.2c0-2.9-5.9,0.3-5.9-2.8c0-0.8,0.3-1.8,1.5-1.8C374.8,88.5,378,88.8,382.1,88.8z
			"/>
		<path d="M428.7,90.4c0,1.3-0.7,1.5-1.5,1.5c-7.3,0.2-5.4-4.9-5.4,35.3c0,1.1,0.1,2.1,1.7,2.1c5.7,0,3.6,0,12.8,0
			c1.1,0,2.5-0.1,3.6-1.8c0.7-1,2.4-5.1,2.8-5.6c0.9-1.1,3-0.3,3,1c0,0.3-0.9,6.2-1.3,9.3c-0.1,0.7-0.3,1.5-1.8,1.5
			c0,0-12.5-0.4-31-0.4c-0.9,0-1-0.5-1-1c0-1.3,0.8-1.3,3.6-1.9c1.4-0.4,1.5-1,1.5-2.3V93.4c0-3.3-5.3,0.1-5.3-3.2
			c0-2.6,1.7-1.6,8.8-1.4h0.5C428.2,88.8,428.7,87.7,428.7,90.4z"/>
		<path d="M483.1,90.4c0,3.6-6.9-0.6-6.9,3.4c0,34.6-1.1,35.5,1.7,35.5c12.2,0,14.6,1,16.4-1.8c0.9-1.3,2.4-6.1,3.8-6.1
			c0.4,0,2,0.2,2,1.5c0,0.3-0.9,6.2-1.3,9.3c-0.1,0.7-0.3,1.5-1.8,1.5c0,0-12.5-0.4-31-0.4c-0.9,0-1.1-0.5-1.1-1
			c0-1.3,0.8-1.3,3.6-1.9c1.4-0.4,1.5-1,1.5-2.3V93.4c0-3.3-5.3,0.1-5.3-3.2c0-2.7,1.7-1.4,9.2-1.4
			C482.6,88.8,483.1,87.7,483.1,90.4z"/>
		<path d="M531.5,88.2c5.3,0,7.6,2.6,8.5,2.6c1,0,1.2-2.6,2.8-2.6c0.6,0,1.1,0.5,1.1,1.3c0,0.5-0.3,2.2-0.3,5.5
			c0,3.2,0.3,4.8,0.3,5.3c0,0.7-0.5,1-1.1,1h-0.1c-2.1-0.1-1.4-2.4-4.5-6.1c-8.9-9.9-19.1,2.2-10.3,8.5c3.6,2.6,8.3,2.5,12.5,4.3
			c14,6,9.1,26.5-6.1,26.5c-3.8,0-7.5-1.5-10-3.6c-0.7-0.6-1.1-0.9-2-0.9c-4.8,0-2.4,1.7-1.4-11.5c0.1-0.7,0.3-1.4,1.4-1.4
			c1.4,0,1.4,0.6,1.8,3.8c0.5,4.6-0.3,3,1.7,5.6c1.7,2.2,4.6,4.3,8.5,4.3c9.1,0,13.1-11.1,5.7-16.4c-5.6-4.1-20.3-2.5-20.3-15
			C519.7,93.4,524.6,88.2,531.5,88.2z"/>
	</g>
	<path d="M56.8,243c0.6,0.1,264.8,34.7,265.4,34.7c5.9-0.7,258.1-30.8,266.4-31.7V65.7l-2.4-0.3v0c-0.5-0.1-263.9-31-264.4-31.1
		l-265.4,34c1.1,118.1,1,83.4,0.2,156.4c-0.1,6.1-0.1,12.2-0.2,18.3 M440.4,257.1c-8.8-9.9-25.5-16.4-44.2-17
		c-26.3-0.7-76.7,19.2-86.1,6.9c-0.9-1.3,2.4-4.1,3.7-5.1c0.2-0.1,0.3-0.2,0.2-0.2c37.2-18,46.8-21,63.1-23.8
		c35-4.9,86,1.4,120.5,7.6c-4.8,4.1-10.9,9.6-14.6,14.5c-0.6,0.4-0.4,0.3-0.9,0.6c-6.7,3.9-25.7,10.3-30.4,15.2
		C441.4,256.9,443.8,256.6,440.4,257.1z M347.8,265.4c-6.1,1.9-19.7,3.4-40.2,4.6l-68.8-9.3c41.3-9.1,59.6,5.1,124.3-9.6
		c8.7-2,45.3-12.3,69,7l-63.1,7.9C361.5,263.6,354.1,263.4,347.8,265.4z M74.5,216.6c15-6.6,40.1,2.1,55.9,8.2
		c21.3,8.2,48.7,26.1,90.1,23.1c-33.1,8.8-28.9,6.5-88.3-1.5C102.7,234.6,95.1,220.3,74.5,216.6z M492.1,193.4
		c8.8,1.9,17.9,4.2,28.6,8.8c2.4,1,2.6,4.3,0.4,5.7c-5.4,3.5-11.3,7.6-16.6,11.9c-116.9-28.1-160-2.8-190.6,12.2
		c-61.3,30.2-48.5,9.2-93.2,26.2l-8.3-1.1C321,231.1,369.7,175.7,492.1,193.4z M541.4,244.4l-27.6,3.4c-0.3-15.8,4.4-21,18.7-28.7
		c17.6-9.2,15.1,1.9,36.1-21.2c5.8-6.5,9.1-7.1,14.6-8v14.2c-12.9,19.8-5.2,20.4-22.8,25.8c-19,6-13.7,9.9-18,14.4l-0.6,0.1
		 M62.2,236.9c0-0.5,0-7,0-11.4c0-2.3,1.8-4.1,4.1-4.1c20.3,0,25.4,9.9,48.8,22.7L62.2,236.9z M327.5,209.1
		c-3.9,1.8-45.9,16.7-65.8,22.3c-44.4,12.4-69,11.5-106.4-3.1c-55.6-21.7-64.4-29.7-93.2-14.2c0.7-112.9-0.3-101.7-0.3-140.8
		c9.5-1.4,265.8-33.7,258.7-33.3c1.4-0.1,261.8,30.6,262.7,30.7c0,127.1,3.7,107-9.1,113.5c0,0-4,2.5-4,2.5c-2,2-14.6,7.1-16.4,7.7
		c-30.6,11.4-11.9,6.9-36.9-4.2c-48.2-21.5-127.2-3.1-177,14.5c-4.1,1.5-8.2,3-12.3,4.5"/>
	<g>
		<g>
			<line x1="134.3" y1="161.9" x2="241.4" y2="161.9"/>
			<rect x="134.3" y="159.6" width="107.1" height="4.5"/>
		</g>
		<g>
			<line x1="403.6" y1="161.9" x2="510.7" y2="161.9"/>
			<rect x="403.6" y="159.6" width="107.1" height="4.5"/>
		</g>
	</g>
	<text transform="matrix(1 0 0 1 258.5021 170.2618)" class="st0 st1">design co.</text>
</g>
</svg>
